G04 #@! TF.GenerationSoftware,KiCad,Pcbnew,(5.1.5)-3*
G04 #@! TF.CreationDate,2020-03-27T21:35:25+01:00*
G04 #@! TF.ProjectId,LoraWAN,4c6f7261-5741-44e2-9e6b-696361645f70,rev?*
G04 #@! TF.SameCoordinates,Original*
G04 #@! TF.FileFunction,Copper,L2,Bot*
G04 #@! TF.FilePolarity,Positive*
%FSLAX46Y46*%
G04 Gerber Fmt 4.6, Leading zero omitted, Abs format (unit mm)*
G04 Created by KiCad (PCBNEW (5.1.5)-3) date 2020-03-27 21:35:25*
%MOMM*%
%LPD*%
G04 APERTURE LIST*
%ADD10O,2.150000X4.300000*%
%ADD11R,2.150000X4.300000*%
%ADD12R,4.300000X2.150000*%
%ADD13O,4.300000X2.150000*%
%ADD14C,2.200000*%
%ADD15C,0.609600*%
%ADD16C,0.508000*%
G04 APERTURE END LIST*
D10*
X137160000Y-88792765D03*
X139700000Y-88792765D03*
X142240000Y-88792765D03*
X144780000Y-88792765D03*
X147320000Y-88792765D03*
X149860000Y-88792765D03*
X152400000Y-88792765D03*
X154940000Y-88792765D03*
X157480000Y-88792765D03*
X160020000Y-88792765D03*
X162560000Y-88792765D03*
X165100000Y-88792765D03*
X167640000Y-88792765D03*
X170180000Y-109112765D03*
X167640000Y-109112765D03*
X165100000Y-109112765D03*
X162560000Y-109112765D03*
X160020000Y-109112765D03*
X157480000Y-109112765D03*
X154940000Y-109112765D03*
X152400000Y-109112765D03*
X149860000Y-109112765D03*
X147320000Y-109112765D03*
X144780000Y-109112765D03*
X142240000Y-109112765D03*
X139700000Y-109112765D03*
X170180000Y-88792765D03*
D11*
X137160000Y-109112765D03*
D12*
X130048000Y-105410000D03*
D13*
X130048000Y-102870000D03*
X130048000Y-100330000D03*
X130048000Y-97790000D03*
X130048000Y-95250000D03*
X130048000Y-92710000D03*
D14*
X154940000Y-97790000D03*
X165100000Y-97790000D03*
X154939999Y-93980002D03*
X165099999Y-93980002D03*
D10*
X142240000Y-82550000D03*
X144780000Y-82550000D03*
X147320000Y-82550000D03*
X157480000Y-82550000D03*
X154940000Y-82550000D03*
D15*
X149860000Y-108037765D02*
X147232235Y-105410000D01*
X149860000Y-109112765D02*
X149860000Y-108037765D01*
X147232235Y-105410000D02*
X135890000Y-105410000D01*
X135890000Y-105410000D02*
X133350000Y-107950000D01*
X133350000Y-107950000D02*
X127000000Y-107950000D01*
X127000000Y-107950000D02*
X125730000Y-106680000D01*
X125730000Y-99348400D02*
X127288400Y-97790000D01*
X127288400Y-97790000D02*
X130048000Y-97790000D01*
X125730000Y-106680000D02*
X125730000Y-99348400D01*
X129010190Y-112754190D02*
X151518175Y-112754190D01*
X124460000Y-108204000D02*
X129010190Y-112754190D01*
X127508000Y-90424000D02*
X124460000Y-93472000D01*
X131572000Y-90424000D02*
X127508000Y-90424000D01*
X124460000Y-93472000D02*
X124460000Y-108204000D01*
X133096000Y-98357000D02*
X133096000Y-91948000D01*
X133096000Y-91948000D02*
X131572000Y-90424000D01*
X131123000Y-100330000D02*
X130048000Y-100330000D01*
X133096000Y-98357000D02*
X131123000Y-100330000D01*
X152400000Y-111872365D02*
X152400000Y-109112765D01*
X151518175Y-112754190D02*
X152400000Y-111872365D01*
X165099999Y-97789999D02*
X165100000Y-97790000D01*
X165100000Y-93980003D02*
X165099999Y-93980002D01*
X165100000Y-97790000D02*
X165100000Y-93980003D01*
X165100000Y-104902000D02*
X165100000Y-97790000D01*
X132807600Y-105410000D02*
X136617600Y-101600000D01*
X130048000Y-105410000D02*
X132807600Y-105410000D01*
X161798000Y-101600000D02*
X165100000Y-104902000D01*
X142240000Y-82550000D02*
X135890000Y-82550000D01*
X136617600Y-101600000D02*
X137160000Y-101600000D01*
X137160000Y-101600000D02*
X161798000Y-101600000D01*
X165100000Y-104902000D02*
X165100000Y-109112765D01*
X135890000Y-82550000D02*
X135128000Y-83312000D01*
X135128000Y-99568000D02*
X137160000Y-101600000D01*
X135128000Y-83312000D02*
X135128000Y-99568000D01*
X152400000Y-88792765D02*
X152400000Y-83820000D01*
X152400000Y-83405400D02*
X153255400Y-82550000D01*
X152400000Y-83820000D02*
X152400000Y-83405400D01*
X153255400Y-82550000D02*
X154940000Y-82550000D01*
X152400000Y-91440003D02*
X152400000Y-88792765D01*
X154939999Y-93980002D02*
X152400000Y-91440003D01*
X149860000Y-86033165D02*
X149860000Y-88792765D01*
X149488335Y-85661500D02*
X149860000Y-86033165D01*
X145131900Y-85661500D02*
X149488335Y-85661500D01*
X144780000Y-85309600D02*
X145131900Y-85661500D01*
X144780000Y-82550000D02*
X144780000Y-85309600D01*
X149860000Y-92710000D02*
X149860000Y-91567000D01*
X154940000Y-97790000D02*
X149860000Y-92710000D01*
X149860000Y-88792765D02*
X149860000Y-91567000D01*
X130048000Y-92710000D02*
X131191000Y-92710000D01*
D16*
G36*
X191592842Y-113106600D02*
G01*
X152530763Y-113106600D01*
X153048969Y-112588395D01*
X153085802Y-112558167D01*
X153206417Y-112411196D01*
X153296043Y-112243518D01*
X153351234Y-112061577D01*
X153365200Y-111919780D01*
X153365200Y-111919779D01*
X153369870Y-111872365D01*
X153365200Y-111824951D01*
X153365200Y-111639603D01*
X153368801Y-111637678D01*
X153633050Y-111420815D01*
X153670001Y-111375791D01*
X153706951Y-111420815D01*
X153971200Y-111637678D01*
X154272679Y-111798822D01*
X154599803Y-111898054D01*
X154940000Y-111931561D01*
X155280198Y-111898054D01*
X155607322Y-111798822D01*
X155908801Y-111637678D01*
X156173050Y-111420815D01*
X156210001Y-111375791D01*
X156246951Y-111420815D01*
X156511200Y-111637678D01*
X156812679Y-111798822D01*
X157139803Y-111898054D01*
X157480000Y-111931561D01*
X157820198Y-111898054D01*
X158147322Y-111798822D01*
X158448801Y-111637678D01*
X158713050Y-111420815D01*
X158750001Y-111375791D01*
X158786951Y-111420815D01*
X159051200Y-111637678D01*
X159352679Y-111798822D01*
X159679803Y-111898054D01*
X160020000Y-111931561D01*
X160360198Y-111898054D01*
X160687322Y-111798822D01*
X160988801Y-111637678D01*
X161253050Y-111420815D01*
X161293135Y-111371972D01*
X161440650Y-111522642D01*
X161722580Y-111715367D01*
X162036691Y-111849387D01*
X162139049Y-111871336D01*
X162407600Y-111750652D01*
X162407600Y-109265165D01*
X162387600Y-109265165D01*
X162387600Y-108960365D01*
X162407600Y-108960365D01*
X162407600Y-106474878D01*
X162139049Y-106354194D01*
X162036691Y-106376143D01*
X161722580Y-106510163D01*
X161440650Y-106702888D01*
X161293135Y-106853558D01*
X161253050Y-106804715D01*
X160988800Y-106587852D01*
X160687321Y-106426708D01*
X160360197Y-106327476D01*
X160020000Y-106293969D01*
X159679802Y-106327476D01*
X159352678Y-106426708D01*
X159051199Y-106587852D01*
X158786950Y-106804715D01*
X158750000Y-106849739D01*
X158713050Y-106804715D01*
X158448800Y-106587852D01*
X158147321Y-106426708D01*
X157820197Y-106327476D01*
X157480000Y-106293969D01*
X157139802Y-106327476D01*
X156812678Y-106426708D01*
X156511199Y-106587852D01*
X156246950Y-106804715D01*
X156210000Y-106849739D01*
X156173050Y-106804715D01*
X155908800Y-106587852D01*
X155607321Y-106426708D01*
X155280197Y-106327476D01*
X154940000Y-106293969D01*
X154599802Y-106327476D01*
X154272678Y-106426708D01*
X153971199Y-106587852D01*
X153706950Y-106804715D01*
X153670000Y-106849739D01*
X153633050Y-106804715D01*
X153368800Y-106587852D01*
X153067321Y-106426708D01*
X152740197Y-106327476D01*
X152400000Y-106293969D01*
X152059802Y-106327476D01*
X151732678Y-106426708D01*
X151431199Y-106587852D01*
X151166950Y-106804715D01*
X151130000Y-106849739D01*
X151093050Y-106804715D01*
X150828800Y-106587852D01*
X150527321Y-106426708D01*
X150200197Y-106327476D01*
X149860000Y-106293969D01*
X149519802Y-106327476D01*
X149515895Y-106328661D01*
X147948273Y-104761041D01*
X147918037Y-104724198D01*
X147771066Y-104603583D01*
X147603388Y-104513957D01*
X147421447Y-104458766D01*
X147279650Y-104444800D01*
X147279647Y-104444800D01*
X147232235Y-104440130D01*
X147184823Y-104444800D01*
X135937411Y-104444800D01*
X135889999Y-104440130D01*
X135842587Y-104444800D01*
X135842585Y-104444800D01*
X135700788Y-104458766D01*
X135518847Y-104513957D01*
X135351169Y-104603583D01*
X135204198Y-104724198D01*
X135173972Y-104761029D01*
X132950203Y-106984800D01*
X132629987Y-106984800D01*
X132667233Y-106954233D01*
X132749759Y-106853674D01*
X132811082Y-106738947D01*
X132848844Y-106614461D01*
X132861595Y-106485000D01*
X132861595Y-106374552D01*
X132996812Y-106361234D01*
X133178753Y-106306043D01*
X133346431Y-106216417D01*
X133493402Y-106095802D01*
X133523638Y-106058959D01*
X137017399Y-102565200D01*
X137112585Y-102565200D01*
X137160000Y-102569870D01*
X137207414Y-102565200D01*
X161398203Y-102565200D01*
X164134800Y-105301799D01*
X164134800Y-106585927D01*
X164131199Y-106587852D01*
X163866950Y-106804715D01*
X163826865Y-106853559D01*
X163679350Y-106702888D01*
X163397420Y-106510163D01*
X163083309Y-106376143D01*
X162980951Y-106354194D01*
X162712400Y-106474878D01*
X162712400Y-108960365D01*
X162732400Y-108960365D01*
X162732400Y-109265165D01*
X162712400Y-109265165D01*
X162712400Y-111750652D01*
X162980951Y-111871336D01*
X163083309Y-111849387D01*
X163397420Y-111715367D01*
X163679350Y-111522642D01*
X163826866Y-111371971D01*
X163866951Y-111420815D01*
X164131200Y-111637678D01*
X164432679Y-111798822D01*
X164759803Y-111898054D01*
X165100000Y-111931561D01*
X165440198Y-111898054D01*
X165767322Y-111798822D01*
X166068801Y-111637678D01*
X166333050Y-111420815D01*
X166370001Y-111375791D01*
X166406951Y-111420815D01*
X166671200Y-111637678D01*
X166972679Y-111798822D01*
X167299803Y-111898054D01*
X167640000Y-111931561D01*
X167980198Y-111898054D01*
X168307322Y-111798822D01*
X168608801Y-111637678D01*
X168873050Y-111420815D01*
X168910001Y-111375791D01*
X168946951Y-111420815D01*
X169211200Y-111637678D01*
X169512679Y-111798822D01*
X169839803Y-111898054D01*
X170180000Y-111931561D01*
X170520198Y-111898054D01*
X170847322Y-111798822D01*
X171148801Y-111637678D01*
X171413050Y-111420815D01*
X171629913Y-111156566D01*
X171791057Y-110855087D01*
X171890289Y-110527963D01*
X171915400Y-110273010D01*
X171915400Y-107952520D01*
X171890289Y-107697567D01*
X171791057Y-107370443D01*
X171629913Y-107068964D01*
X171413050Y-106804715D01*
X171148800Y-106587852D01*
X170847321Y-106426708D01*
X170520197Y-106327476D01*
X170180000Y-106293969D01*
X169839802Y-106327476D01*
X169512678Y-106426708D01*
X169211199Y-106587852D01*
X168946950Y-106804715D01*
X168910000Y-106849739D01*
X168873050Y-106804715D01*
X168608800Y-106587852D01*
X168307321Y-106426708D01*
X167980197Y-106327476D01*
X167640000Y-106293969D01*
X167299802Y-106327476D01*
X166972678Y-106426708D01*
X166671199Y-106587852D01*
X166406950Y-106804715D01*
X166370000Y-106849739D01*
X166333050Y-106804715D01*
X166068800Y-106587852D01*
X166065200Y-106585928D01*
X166065200Y-104949411D01*
X166069870Y-104901999D01*
X166065200Y-104854585D01*
X166065200Y-99262289D01*
X166222190Y-99157392D01*
X166467392Y-98912190D01*
X166660046Y-98623862D01*
X166792749Y-98303490D01*
X166860400Y-97963384D01*
X166860400Y-97616616D01*
X166792749Y-97276510D01*
X166660046Y-96956138D01*
X166467392Y-96667810D01*
X166222190Y-96422608D01*
X166065200Y-96317711D01*
X166065200Y-95452290D01*
X166222189Y-95347394D01*
X166467391Y-95102192D01*
X166660045Y-94813864D01*
X166792748Y-94493492D01*
X166860399Y-94153386D01*
X166860399Y-93806618D01*
X166792748Y-93466512D01*
X166660045Y-93146140D01*
X166467391Y-92857812D01*
X166222189Y-92612610D01*
X165933861Y-92419956D01*
X165613489Y-92287253D01*
X165273383Y-92219602D01*
X164926615Y-92219602D01*
X164586509Y-92287253D01*
X164266137Y-92419956D01*
X163977809Y-92612610D01*
X163732607Y-92857812D01*
X163539953Y-93146140D01*
X163407250Y-93466512D01*
X163339599Y-93806618D01*
X163339599Y-94153386D01*
X163407250Y-94493492D01*
X163539953Y-94813864D01*
X163732607Y-95102192D01*
X163977809Y-95347394D01*
X164134801Y-95452292D01*
X164134800Y-96317711D01*
X163977810Y-96422608D01*
X163732608Y-96667810D01*
X163539954Y-96956138D01*
X163407251Y-97276510D01*
X163339600Y-97616616D01*
X163339600Y-97963384D01*
X163407251Y-98303490D01*
X163539954Y-98623862D01*
X163732608Y-98912190D01*
X163977810Y-99157392D01*
X164134801Y-99262290D01*
X164134800Y-102571802D01*
X162514038Y-100951041D01*
X162483802Y-100914198D01*
X162336831Y-100793583D01*
X162169153Y-100703957D01*
X161987212Y-100648766D01*
X161845415Y-100634800D01*
X161845412Y-100634800D01*
X161798000Y-100630130D01*
X161750588Y-100634800D01*
X137559798Y-100634800D01*
X136093200Y-99168203D01*
X136093200Y-91237252D01*
X136191200Y-91317678D01*
X136492679Y-91478822D01*
X136819803Y-91578054D01*
X137160000Y-91611561D01*
X137500198Y-91578054D01*
X137827322Y-91478822D01*
X138128801Y-91317678D01*
X138393050Y-91100815D01*
X138430001Y-91055791D01*
X138466951Y-91100815D01*
X138731200Y-91317678D01*
X139032679Y-91478822D01*
X139359803Y-91578054D01*
X139700000Y-91611561D01*
X140040198Y-91578054D01*
X140367322Y-91478822D01*
X140668801Y-91317678D01*
X140933050Y-91100815D01*
X140970001Y-91055791D01*
X141006951Y-91100815D01*
X141271200Y-91317678D01*
X141572679Y-91478822D01*
X141899803Y-91578054D01*
X142240000Y-91611561D01*
X142580198Y-91578054D01*
X142907322Y-91478822D01*
X143208801Y-91317678D01*
X143473050Y-91100815D01*
X143510001Y-91055791D01*
X143546951Y-91100815D01*
X143811200Y-91317678D01*
X144112679Y-91478822D01*
X144439803Y-91578054D01*
X144780000Y-91611561D01*
X145120198Y-91578054D01*
X145447322Y-91478822D01*
X145748801Y-91317678D01*
X146013050Y-91100815D01*
X146050001Y-91055791D01*
X146086951Y-91100815D01*
X146351200Y-91317678D01*
X146652679Y-91478822D01*
X146979803Y-91578054D01*
X147320000Y-91611561D01*
X147660198Y-91578054D01*
X147987322Y-91478822D01*
X148288801Y-91317678D01*
X148553050Y-91100815D01*
X148590001Y-91055791D01*
X148626951Y-91100815D01*
X148891200Y-91317678D01*
X148894801Y-91319603D01*
X148894801Y-91519585D01*
X148894800Y-92662587D01*
X148890130Y-92710000D01*
X148894800Y-92757412D01*
X148894800Y-92757414D01*
X148908766Y-92899211D01*
X148963957Y-93081152D01*
X149053583Y-93248831D01*
X149174198Y-93395802D01*
X149211041Y-93426038D01*
X153216435Y-97431434D01*
X153179600Y-97616616D01*
X153179600Y-97963384D01*
X153247251Y-98303490D01*
X153379954Y-98623862D01*
X153572608Y-98912190D01*
X153817810Y-99157392D01*
X154106138Y-99350046D01*
X154426510Y-99482749D01*
X154766616Y-99550400D01*
X155113384Y-99550400D01*
X155453490Y-99482749D01*
X155773862Y-99350046D01*
X156062190Y-99157392D01*
X156307392Y-98912190D01*
X156500046Y-98623862D01*
X156632749Y-98303490D01*
X156700400Y-97963384D01*
X156700400Y-97616616D01*
X156632749Y-97276510D01*
X156500046Y-96956138D01*
X156307392Y-96667810D01*
X156062190Y-96422608D01*
X155773862Y-96229954D01*
X155453490Y-96097251D01*
X155113384Y-96029600D01*
X154766616Y-96029600D01*
X154581434Y-96066435D01*
X153952168Y-95437169D01*
X154106137Y-95540048D01*
X154426509Y-95672751D01*
X154766615Y-95740402D01*
X155113383Y-95740402D01*
X155453489Y-95672751D01*
X155773861Y-95540048D01*
X156062189Y-95347394D01*
X156307391Y-95102192D01*
X156500045Y-94813864D01*
X156632748Y-94493492D01*
X156700399Y-94153386D01*
X156700399Y-93806618D01*
X156632748Y-93466512D01*
X156500045Y-93146140D01*
X156307391Y-92857812D01*
X156062189Y-92612610D01*
X155773861Y-92419956D01*
X155453489Y-92287253D01*
X155113383Y-92219602D01*
X154766615Y-92219602D01*
X154581432Y-92256437D01*
X153519224Y-91194229D01*
X153633050Y-91100815D01*
X153670001Y-91055791D01*
X153706951Y-91100815D01*
X153971200Y-91317678D01*
X154272679Y-91478822D01*
X154599803Y-91578054D01*
X154940000Y-91611561D01*
X155280198Y-91578054D01*
X155607322Y-91478822D01*
X155908801Y-91317678D01*
X156173050Y-91100815D01*
X156210001Y-91055791D01*
X156246951Y-91100815D01*
X156511200Y-91317678D01*
X156812679Y-91478822D01*
X157139803Y-91578054D01*
X157480000Y-91611561D01*
X157820198Y-91578054D01*
X158147322Y-91478822D01*
X158448801Y-91317678D01*
X158713050Y-91100815D01*
X158750001Y-91055791D01*
X158786951Y-91100815D01*
X159051200Y-91317678D01*
X159352679Y-91478822D01*
X159679803Y-91578054D01*
X160020000Y-91611561D01*
X160360198Y-91578054D01*
X160687322Y-91478822D01*
X160988801Y-91317678D01*
X161253050Y-91100815D01*
X161290001Y-91055791D01*
X161326951Y-91100815D01*
X161591200Y-91317678D01*
X161892679Y-91478822D01*
X162219803Y-91578054D01*
X162560000Y-91611561D01*
X162900198Y-91578054D01*
X163227322Y-91478822D01*
X163528801Y-91317678D01*
X163793050Y-91100815D01*
X163830001Y-91055791D01*
X163866951Y-91100815D01*
X164131200Y-91317678D01*
X164432679Y-91478822D01*
X164759803Y-91578054D01*
X165100000Y-91611561D01*
X165440198Y-91578054D01*
X165767322Y-91478822D01*
X166068801Y-91317678D01*
X166333050Y-91100815D01*
X166370001Y-91055791D01*
X166406951Y-91100815D01*
X166671200Y-91317678D01*
X166972679Y-91478822D01*
X167299803Y-91578054D01*
X167640000Y-91611561D01*
X167980198Y-91578054D01*
X168307322Y-91478822D01*
X168608801Y-91317678D01*
X168873050Y-91100815D01*
X168910001Y-91055791D01*
X168946951Y-91100815D01*
X169211200Y-91317678D01*
X169512679Y-91478822D01*
X169839803Y-91578054D01*
X170180000Y-91611561D01*
X170520198Y-91578054D01*
X170847322Y-91478822D01*
X171148801Y-91317678D01*
X171413050Y-91100815D01*
X171629913Y-90836566D01*
X171791057Y-90535087D01*
X171890289Y-90207963D01*
X171915400Y-89953010D01*
X171915400Y-87632520D01*
X171890289Y-87377567D01*
X171791057Y-87050443D01*
X171629913Y-86748964D01*
X171413050Y-86484715D01*
X171148800Y-86267852D01*
X170847321Y-86106708D01*
X170520197Y-86007476D01*
X170180000Y-85973969D01*
X169839802Y-86007476D01*
X169512678Y-86106708D01*
X169211199Y-86267852D01*
X168946950Y-86484715D01*
X168910000Y-86529739D01*
X168873050Y-86484715D01*
X168608800Y-86267852D01*
X168307321Y-86106708D01*
X167980197Y-86007476D01*
X167640000Y-85973969D01*
X167299802Y-86007476D01*
X166972678Y-86106708D01*
X166671199Y-86267852D01*
X166406950Y-86484715D01*
X166370000Y-86529739D01*
X166333050Y-86484715D01*
X166068800Y-86267852D01*
X165767321Y-86106708D01*
X165440197Y-86007476D01*
X165100000Y-85973969D01*
X164759802Y-86007476D01*
X164432678Y-86106708D01*
X164131199Y-86267852D01*
X163866950Y-86484715D01*
X163830000Y-86529739D01*
X163793050Y-86484715D01*
X163528800Y-86267852D01*
X163227321Y-86106708D01*
X162900197Y-86007476D01*
X162560000Y-85973969D01*
X162219802Y-86007476D01*
X161892678Y-86106708D01*
X161591199Y-86267852D01*
X161326950Y-86484715D01*
X161290000Y-86529739D01*
X161253050Y-86484715D01*
X160988800Y-86267852D01*
X160687321Y-86106708D01*
X160360197Y-86007476D01*
X160020000Y-85973969D01*
X159679802Y-86007476D01*
X159352678Y-86106708D01*
X159051199Y-86267852D01*
X158786950Y-86484715D01*
X158750000Y-86529739D01*
X158713050Y-86484715D01*
X158448800Y-86267852D01*
X158147321Y-86106708D01*
X157820197Y-86007476D01*
X157480000Y-85973969D01*
X157139802Y-86007476D01*
X156812678Y-86106708D01*
X156511199Y-86267852D01*
X156246950Y-86484715D01*
X156210000Y-86529739D01*
X156173050Y-86484715D01*
X155908800Y-86267852D01*
X155607321Y-86106708D01*
X155280197Y-86007476D01*
X154940000Y-85973969D01*
X154599802Y-86007476D01*
X154272678Y-86106708D01*
X153971199Y-86267852D01*
X153706950Y-86484715D01*
X153670000Y-86529739D01*
X153633050Y-86484715D01*
X153368800Y-86267852D01*
X153365200Y-86265928D01*
X153365200Y-84360152D01*
X153490088Y-84593801D01*
X153706951Y-84858050D01*
X153971200Y-85074913D01*
X154272679Y-85236057D01*
X154599803Y-85335289D01*
X154940000Y-85368796D01*
X155280198Y-85335289D01*
X155607322Y-85236057D01*
X155908801Y-85074913D01*
X156173050Y-84858050D01*
X156213135Y-84809207D01*
X156360650Y-84959877D01*
X156642580Y-85152602D01*
X156956691Y-85286622D01*
X157059049Y-85308571D01*
X157327600Y-85187887D01*
X157327600Y-82702400D01*
X157632400Y-82702400D01*
X157632400Y-85187887D01*
X157900951Y-85308571D01*
X158003309Y-85286622D01*
X158317420Y-85152602D01*
X158599350Y-84959877D01*
X158838264Y-84715853D01*
X159024980Y-84429908D01*
X159152323Y-84113031D01*
X159215400Y-83777400D01*
X159215400Y-82702400D01*
X157632400Y-82702400D01*
X157327600Y-82702400D01*
X157307600Y-82702400D01*
X157307600Y-82397600D01*
X157327600Y-82397600D01*
X157327600Y-79912113D01*
X157632400Y-79912113D01*
X157632400Y-82397600D01*
X159215400Y-82397600D01*
X159215400Y-81322600D01*
X159152323Y-80986969D01*
X159053891Y-80742031D01*
X177737701Y-80742031D01*
X177737701Y-81193969D01*
X177825870Y-81637222D01*
X177998819Y-82054758D01*
X178249902Y-82430530D01*
X178569470Y-82750098D01*
X178945242Y-83001181D01*
X179362778Y-83174130D01*
X179806031Y-83262299D01*
X180257969Y-83262299D01*
X180701222Y-83174130D01*
X181118758Y-83001181D01*
X181494530Y-82750098D01*
X181814098Y-82430530D01*
X182065181Y-82054758D01*
X182238130Y-81637222D01*
X182326299Y-81193969D01*
X182326299Y-80742031D01*
X182238130Y-80298778D01*
X182065181Y-79881242D01*
X181814098Y-79505470D01*
X181494530Y-79185902D01*
X181118758Y-78934819D01*
X180701222Y-78761870D01*
X180257969Y-78673701D01*
X179806031Y-78673701D01*
X179362778Y-78761870D01*
X178945242Y-78934819D01*
X178569470Y-79185902D01*
X178249902Y-79505470D01*
X177998819Y-79881242D01*
X177825870Y-80298778D01*
X177737701Y-80742031D01*
X159053891Y-80742031D01*
X159024980Y-80670092D01*
X158838264Y-80384147D01*
X158599350Y-80140123D01*
X158317420Y-79947398D01*
X158003309Y-79813378D01*
X157900951Y-79791429D01*
X157632400Y-79912113D01*
X157327600Y-79912113D01*
X157059049Y-79791429D01*
X156956691Y-79813378D01*
X156642580Y-79947398D01*
X156360650Y-80140123D01*
X156213135Y-80290793D01*
X156173050Y-80241950D01*
X155908800Y-80025087D01*
X155607321Y-79863943D01*
X155280197Y-79764711D01*
X154940000Y-79731204D01*
X154599802Y-79764711D01*
X154272678Y-79863943D01*
X153971199Y-80025087D01*
X153706950Y-80241950D01*
X153490087Y-80506200D01*
X153328943Y-80807679D01*
X153229711Y-81134803D01*
X153204600Y-81389756D01*
X153204600Y-81585133D01*
X153066188Y-81598766D01*
X152884247Y-81653957D01*
X152716569Y-81743583D01*
X152569598Y-81864198D01*
X152539370Y-81901031D01*
X151751036Y-82689367D01*
X151714199Y-82719598D01*
X151607075Y-82850130D01*
X151593583Y-82866570D01*
X151565115Y-82919829D01*
X151503957Y-83034247D01*
X151448766Y-83216188D01*
X151434800Y-83357985D01*
X151430130Y-83405400D01*
X151434800Y-83452812D01*
X151434800Y-83867414D01*
X151434801Y-83867424D01*
X151434801Y-86265927D01*
X151431199Y-86267852D01*
X151166950Y-86484715D01*
X151130000Y-86529739D01*
X151093050Y-86484715D01*
X150828800Y-86267852D01*
X150825200Y-86265928D01*
X150825200Y-86080580D01*
X150829870Y-86033165D01*
X150811234Y-85843953D01*
X150756043Y-85662011D01*
X150711230Y-85578173D01*
X150666417Y-85494334D01*
X150545802Y-85347363D01*
X150508964Y-85317131D01*
X150204372Y-85012540D01*
X150174137Y-84975698D01*
X150027166Y-84855083D01*
X149859488Y-84765457D01*
X149677547Y-84710266D01*
X149535750Y-84696300D01*
X149535747Y-84696300D01*
X149488335Y-84691630D01*
X149440923Y-84696300D01*
X148691032Y-84696300D01*
X148864980Y-84429908D01*
X148992323Y-84113031D01*
X149055400Y-83777400D01*
X149055400Y-82702400D01*
X147472400Y-82702400D01*
X147472400Y-82722400D01*
X147167600Y-82722400D01*
X147167600Y-82702400D01*
X147147600Y-82702400D01*
X147147600Y-82397600D01*
X147167600Y-82397600D01*
X147167600Y-79912113D01*
X147472400Y-79912113D01*
X147472400Y-82397600D01*
X149055400Y-82397600D01*
X149055400Y-81322600D01*
X148992323Y-80986969D01*
X148864980Y-80670092D01*
X148678264Y-80384147D01*
X148439350Y-80140123D01*
X148157420Y-79947398D01*
X147843309Y-79813378D01*
X147740951Y-79791429D01*
X147472400Y-79912113D01*
X147167600Y-79912113D01*
X146899049Y-79791429D01*
X146796691Y-79813378D01*
X146482580Y-79947398D01*
X146200650Y-80140123D01*
X146053135Y-80290793D01*
X146013050Y-80241950D01*
X145748800Y-80025087D01*
X145447321Y-79863943D01*
X145120197Y-79764711D01*
X144780000Y-79731204D01*
X144439802Y-79764711D01*
X144112678Y-79863943D01*
X143811199Y-80025087D01*
X143546950Y-80241950D01*
X143510000Y-80286974D01*
X143473050Y-80241950D01*
X143208800Y-80025087D01*
X142907321Y-79863943D01*
X142580197Y-79764711D01*
X142240000Y-79731204D01*
X141899802Y-79764711D01*
X141572678Y-79863943D01*
X141271199Y-80025087D01*
X141006950Y-80241950D01*
X140790087Y-80506200D01*
X140628943Y-80807679D01*
X140529711Y-81134803D01*
X140504600Y-81389756D01*
X140504600Y-81584800D01*
X135937415Y-81584800D01*
X135890000Y-81580130D01*
X135700788Y-81598766D01*
X135518846Y-81653957D01*
X135351169Y-81743583D01*
X135204198Y-81864198D01*
X135173970Y-81901031D01*
X135096957Y-81978045D01*
X135238130Y-81637222D01*
X135326299Y-81193969D01*
X135326299Y-80742031D01*
X135238130Y-80298778D01*
X135065181Y-79881242D01*
X134814098Y-79505470D01*
X134494530Y-79185902D01*
X134118758Y-78934819D01*
X133701222Y-78761870D01*
X133257969Y-78673701D01*
X132806031Y-78673701D01*
X132362778Y-78761870D01*
X131945242Y-78934819D01*
X131569470Y-79185902D01*
X131249902Y-79505470D01*
X130998819Y-79881242D01*
X130825870Y-80298778D01*
X130737701Y-80742031D01*
X130737701Y-81193969D01*
X130825870Y-81637222D01*
X130998819Y-82054758D01*
X131249902Y-82430530D01*
X131569470Y-82750098D01*
X131945242Y-83001181D01*
X132362778Y-83174130D01*
X132806031Y-83262299D01*
X133257969Y-83262299D01*
X133701222Y-83174130D01*
X134118758Y-83001181D01*
X134244682Y-82917041D01*
X134231957Y-82940848D01*
X134176766Y-83122789D01*
X134167567Y-83216188D01*
X134158130Y-83312000D01*
X134162800Y-83359412D01*
X134162801Y-99520578D01*
X134158130Y-99568000D01*
X134176767Y-99757211D01*
X134231958Y-99939153D01*
X134259031Y-99989802D01*
X134321584Y-100106831D01*
X134442199Y-100253802D01*
X134479036Y-100284033D01*
X135523802Y-101328799D01*
X132797312Y-104055291D01*
X132749759Y-103966326D01*
X132667233Y-103865767D01*
X132587236Y-103800116D01*
X132650602Y-103707420D01*
X132784622Y-103393309D01*
X132806571Y-103290951D01*
X132685887Y-103022400D01*
X130200400Y-103022400D01*
X130200400Y-103042400D01*
X129895600Y-103042400D01*
X129895600Y-103022400D01*
X127410113Y-103022400D01*
X127289429Y-103290951D01*
X127311378Y-103393309D01*
X127445398Y-103707420D01*
X127508764Y-103800116D01*
X127428767Y-103865767D01*
X127346241Y-103966326D01*
X127284918Y-104081053D01*
X127247156Y-104205539D01*
X127234405Y-104335000D01*
X127234405Y-106485000D01*
X127247156Y-106614461D01*
X127284918Y-106738947D01*
X127346241Y-106853674D01*
X127428767Y-106954233D01*
X127466013Y-106984800D01*
X127399799Y-106984800D01*
X126695200Y-106280203D01*
X126695200Y-99748197D01*
X127595888Y-98847510D01*
X127739950Y-99023050D01*
X127784974Y-99060000D01*
X127739950Y-99096950D01*
X127523087Y-99361199D01*
X127361943Y-99662678D01*
X127262711Y-99989802D01*
X127229204Y-100330000D01*
X127262711Y-100670198D01*
X127361943Y-100997322D01*
X127523087Y-101298801D01*
X127739950Y-101563050D01*
X127788793Y-101603135D01*
X127638123Y-101750650D01*
X127445398Y-102032580D01*
X127311378Y-102346691D01*
X127289429Y-102449049D01*
X127410113Y-102717600D01*
X129895600Y-102717600D01*
X129895600Y-102697600D01*
X130200400Y-102697600D01*
X130200400Y-102717600D01*
X132685887Y-102717600D01*
X132806571Y-102449049D01*
X132784622Y-102346691D01*
X132650602Y-102032580D01*
X132457877Y-101750650D01*
X132307207Y-101603135D01*
X132356050Y-101563050D01*
X132572913Y-101298801D01*
X132734057Y-100997322D01*
X132833289Y-100670198D01*
X132866796Y-100330000D01*
X132833289Y-99989802D01*
X132832104Y-99985894D01*
X133744970Y-99073029D01*
X133781802Y-99042802D01*
X133902417Y-98895831D01*
X133992043Y-98728153D01*
X134047234Y-98546212D01*
X134061200Y-98404415D01*
X134061200Y-98404413D01*
X134065870Y-98357001D01*
X134061200Y-98309589D01*
X134061200Y-91995411D01*
X134065870Y-91947999D01*
X134061200Y-91900585D01*
X134047234Y-91758788D01*
X133992043Y-91576847D01*
X133902417Y-91409169D01*
X133781802Y-91262198D01*
X133744970Y-91231971D01*
X132288038Y-89775041D01*
X132257802Y-89738198D01*
X132110831Y-89617583D01*
X131943153Y-89527957D01*
X131761212Y-89472766D01*
X131619415Y-89458800D01*
X131619412Y-89458800D01*
X131572000Y-89454130D01*
X131524588Y-89458800D01*
X127555414Y-89458800D01*
X127508000Y-89454130D01*
X127460585Y-89458800D01*
X127318788Y-89472766D01*
X127136847Y-89527957D01*
X126969169Y-89617583D01*
X126822198Y-89738198D01*
X126791966Y-89775036D01*
X124129400Y-92437603D01*
X124129400Y-76885400D01*
X191605575Y-76885400D01*
X191592842Y-113106600D01*
G37*
X191592842Y-113106600D02*
X152530763Y-113106600D01*
X153048969Y-112588395D01*
X153085802Y-112558167D01*
X153206417Y-112411196D01*
X153296043Y-112243518D01*
X153351234Y-112061577D01*
X153365200Y-111919780D01*
X153365200Y-111919779D01*
X153369870Y-111872365D01*
X153365200Y-111824951D01*
X153365200Y-111639603D01*
X153368801Y-111637678D01*
X153633050Y-111420815D01*
X153670001Y-111375791D01*
X153706951Y-111420815D01*
X153971200Y-111637678D01*
X154272679Y-111798822D01*
X154599803Y-111898054D01*
X154940000Y-111931561D01*
X155280198Y-111898054D01*
X155607322Y-111798822D01*
X155908801Y-111637678D01*
X156173050Y-111420815D01*
X156210001Y-111375791D01*
X156246951Y-111420815D01*
X156511200Y-111637678D01*
X156812679Y-111798822D01*
X157139803Y-111898054D01*
X157480000Y-111931561D01*
X157820198Y-111898054D01*
X158147322Y-111798822D01*
X158448801Y-111637678D01*
X158713050Y-111420815D01*
X158750001Y-111375791D01*
X158786951Y-111420815D01*
X159051200Y-111637678D01*
X159352679Y-111798822D01*
X159679803Y-111898054D01*
X160020000Y-111931561D01*
X160360198Y-111898054D01*
X160687322Y-111798822D01*
X160988801Y-111637678D01*
X161253050Y-111420815D01*
X161293135Y-111371972D01*
X161440650Y-111522642D01*
X161722580Y-111715367D01*
X162036691Y-111849387D01*
X162139049Y-111871336D01*
X162407600Y-111750652D01*
X162407600Y-109265165D01*
X162387600Y-109265165D01*
X162387600Y-108960365D01*
X162407600Y-108960365D01*
X162407600Y-106474878D01*
X162139049Y-106354194D01*
X162036691Y-106376143D01*
X161722580Y-106510163D01*
X161440650Y-106702888D01*
X161293135Y-106853558D01*
X161253050Y-106804715D01*
X160988800Y-106587852D01*
X160687321Y-106426708D01*
X160360197Y-106327476D01*
X160020000Y-106293969D01*
X159679802Y-106327476D01*
X159352678Y-106426708D01*
X159051199Y-106587852D01*
X158786950Y-106804715D01*
X158750000Y-106849739D01*
X158713050Y-106804715D01*
X158448800Y-106587852D01*
X158147321Y-106426708D01*
X157820197Y-106327476D01*
X157480000Y-106293969D01*
X157139802Y-106327476D01*
X156812678Y-106426708D01*
X156511199Y-106587852D01*
X156246950Y-106804715D01*
X156210000Y-106849739D01*
X156173050Y-106804715D01*
X155908800Y-106587852D01*
X155607321Y-106426708D01*
X155280197Y-106327476D01*
X154940000Y-106293969D01*
X154599802Y-106327476D01*
X154272678Y-106426708D01*
X153971199Y-106587852D01*
X153706950Y-106804715D01*
X153670000Y-106849739D01*
X153633050Y-106804715D01*
X153368800Y-106587852D01*
X153067321Y-106426708D01*
X152740197Y-106327476D01*
X152400000Y-106293969D01*
X152059802Y-106327476D01*
X151732678Y-106426708D01*
X151431199Y-106587852D01*
X151166950Y-106804715D01*
X151130000Y-106849739D01*
X151093050Y-106804715D01*
X150828800Y-106587852D01*
X150527321Y-106426708D01*
X150200197Y-106327476D01*
X149860000Y-106293969D01*
X149519802Y-106327476D01*
X149515895Y-106328661D01*
X147948273Y-104761041D01*
X147918037Y-104724198D01*
X147771066Y-104603583D01*
X147603388Y-104513957D01*
X147421447Y-104458766D01*
X147279650Y-104444800D01*
X147279647Y-104444800D01*
X147232235Y-104440130D01*
X147184823Y-104444800D01*
X135937411Y-104444800D01*
X135889999Y-104440130D01*
X135842587Y-104444800D01*
X135842585Y-104444800D01*
X135700788Y-104458766D01*
X135518847Y-104513957D01*
X135351169Y-104603583D01*
X135204198Y-104724198D01*
X135173972Y-104761029D01*
X132950203Y-106984800D01*
X132629987Y-106984800D01*
X132667233Y-106954233D01*
X132749759Y-106853674D01*
X132811082Y-106738947D01*
X132848844Y-106614461D01*
X132861595Y-106485000D01*
X132861595Y-106374552D01*
X132996812Y-106361234D01*
X133178753Y-106306043D01*
X133346431Y-106216417D01*
X133493402Y-106095802D01*
X133523638Y-106058959D01*
X137017399Y-102565200D01*
X137112585Y-102565200D01*
X137160000Y-102569870D01*
X137207414Y-102565200D01*
X161398203Y-102565200D01*
X164134800Y-105301799D01*
X164134800Y-106585927D01*
X164131199Y-106587852D01*
X163866950Y-106804715D01*
X163826865Y-106853559D01*
X163679350Y-106702888D01*
X163397420Y-106510163D01*
X163083309Y-106376143D01*
X162980951Y-106354194D01*
X162712400Y-106474878D01*
X162712400Y-108960365D01*
X162732400Y-108960365D01*
X162732400Y-109265165D01*
X162712400Y-109265165D01*
X162712400Y-111750652D01*
X162980951Y-111871336D01*
X163083309Y-111849387D01*
X163397420Y-111715367D01*
X163679350Y-111522642D01*
X163826866Y-111371971D01*
X163866951Y-111420815D01*
X164131200Y-111637678D01*
X164432679Y-111798822D01*
X164759803Y-111898054D01*
X165100000Y-111931561D01*
X165440198Y-111898054D01*
X165767322Y-111798822D01*
X166068801Y-111637678D01*
X166333050Y-111420815D01*
X166370001Y-111375791D01*
X166406951Y-111420815D01*
X166671200Y-111637678D01*
X166972679Y-111798822D01*
X167299803Y-111898054D01*
X167640000Y-111931561D01*
X167980198Y-111898054D01*
X168307322Y-111798822D01*
X168608801Y-111637678D01*
X168873050Y-111420815D01*
X168910001Y-111375791D01*
X168946951Y-111420815D01*
X169211200Y-111637678D01*
X169512679Y-111798822D01*
X169839803Y-111898054D01*
X170180000Y-111931561D01*
X170520198Y-111898054D01*
X170847322Y-111798822D01*
X171148801Y-111637678D01*
X171413050Y-111420815D01*
X171629913Y-111156566D01*
X171791057Y-110855087D01*
X171890289Y-110527963D01*
X171915400Y-110273010D01*
X171915400Y-107952520D01*
X171890289Y-107697567D01*
X171791057Y-107370443D01*
X171629913Y-107068964D01*
X171413050Y-106804715D01*
X171148800Y-106587852D01*
X170847321Y-106426708D01*
X170520197Y-106327476D01*
X170180000Y-106293969D01*
X169839802Y-106327476D01*
X169512678Y-106426708D01*
X169211199Y-106587852D01*
X168946950Y-106804715D01*
X168910000Y-106849739D01*
X168873050Y-106804715D01*
X168608800Y-106587852D01*
X168307321Y-106426708D01*
X167980197Y-106327476D01*
X167640000Y-106293969D01*
X167299802Y-106327476D01*
X166972678Y-106426708D01*
X166671199Y-106587852D01*
X166406950Y-106804715D01*
X166370000Y-106849739D01*
X166333050Y-106804715D01*
X166068800Y-106587852D01*
X166065200Y-106585928D01*
X166065200Y-104949411D01*
X166069870Y-104901999D01*
X166065200Y-104854585D01*
X166065200Y-99262289D01*
X166222190Y-99157392D01*
X166467392Y-98912190D01*
X166660046Y-98623862D01*
X166792749Y-98303490D01*
X166860400Y-97963384D01*
X166860400Y-97616616D01*
X166792749Y-97276510D01*
X166660046Y-96956138D01*
X166467392Y-96667810D01*
X166222190Y-96422608D01*
X166065200Y-96317711D01*
X166065200Y-95452290D01*
X166222189Y-95347394D01*
X166467391Y-95102192D01*
X166660045Y-94813864D01*
X166792748Y-94493492D01*
X166860399Y-94153386D01*
X166860399Y-93806618D01*
X166792748Y-93466512D01*
X166660045Y-93146140D01*
X166467391Y-92857812D01*
X166222189Y-92612610D01*
X165933861Y-92419956D01*
X165613489Y-92287253D01*
X165273383Y-92219602D01*
X164926615Y-92219602D01*
X164586509Y-92287253D01*
X164266137Y-92419956D01*
X163977809Y-92612610D01*
X163732607Y-92857812D01*
X163539953Y-93146140D01*
X163407250Y-93466512D01*
X163339599Y-93806618D01*
X163339599Y-94153386D01*
X163407250Y-94493492D01*
X163539953Y-94813864D01*
X163732607Y-95102192D01*
X163977809Y-95347394D01*
X164134801Y-95452292D01*
X164134800Y-96317711D01*
X163977810Y-96422608D01*
X163732608Y-96667810D01*
X163539954Y-96956138D01*
X163407251Y-97276510D01*
X163339600Y-97616616D01*
X163339600Y-97963384D01*
X163407251Y-98303490D01*
X163539954Y-98623862D01*
X163732608Y-98912190D01*
X163977810Y-99157392D01*
X164134801Y-99262290D01*
X164134800Y-102571802D01*
X162514038Y-100951041D01*
X162483802Y-100914198D01*
X162336831Y-100793583D01*
X162169153Y-100703957D01*
X161987212Y-100648766D01*
X161845415Y-100634800D01*
X161845412Y-100634800D01*
X161798000Y-100630130D01*
X161750588Y-100634800D01*
X137559798Y-100634800D01*
X136093200Y-99168203D01*
X136093200Y-91237252D01*
X136191200Y-91317678D01*
X136492679Y-91478822D01*
X136819803Y-91578054D01*
X137160000Y-91611561D01*
X137500198Y-91578054D01*
X137827322Y-91478822D01*
X138128801Y-91317678D01*
X138393050Y-91100815D01*
X138430001Y-91055791D01*
X138466951Y-91100815D01*
X138731200Y-91317678D01*
X139032679Y-91478822D01*
X139359803Y-91578054D01*
X139700000Y-91611561D01*
X140040198Y-91578054D01*
X140367322Y-91478822D01*
X140668801Y-91317678D01*
X140933050Y-91100815D01*
X140970001Y-91055791D01*
X141006951Y-91100815D01*
X141271200Y-91317678D01*
X141572679Y-91478822D01*
X141899803Y-91578054D01*
X142240000Y-91611561D01*
X142580198Y-91578054D01*
X142907322Y-91478822D01*
X143208801Y-91317678D01*
X143473050Y-91100815D01*
X143510001Y-91055791D01*
X143546951Y-91100815D01*
X143811200Y-91317678D01*
X144112679Y-91478822D01*
X144439803Y-91578054D01*
X144780000Y-91611561D01*
X145120198Y-91578054D01*
X145447322Y-91478822D01*
X145748801Y-91317678D01*
X146013050Y-91100815D01*
X146050001Y-91055791D01*
X146086951Y-91100815D01*
X146351200Y-91317678D01*
X146652679Y-91478822D01*
X146979803Y-91578054D01*
X147320000Y-91611561D01*
X147660198Y-91578054D01*
X147987322Y-91478822D01*
X148288801Y-91317678D01*
X148553050Y-91100815D01*
X148590001Y-91055791D01*
X148626951Y-91100815D01*
X148891200Y-91317678D01*
X148894801Y-91319603D01*
X148894801Y-91519585D01*
X148894800Y-92662587D01*
X148890130Y-92710000D01*
X148894800Y-92757412D01*
X148894800Y-92757414D01*
X148908766Y-92899211D01*
X148963957Y-93081152D01*
X149053583Y-93248831D01*
X149174198Y-93395802D01*
X149211041Y-93426038D01*
X153216435Y-97431434D01*
X153179600Y-97616616D01*
X153179600Y-97963384D01*
X153247251Y-98303490D01*
X153379954Y-98623862D01*
X153572608Y-98912190D01*
X153817810Y-99157392D01*
X154106138Y-99350046D01*
X154426510Y-99482749D01*
X154766616Y-99550400D01*
X155113384Y-99550400D01*
X155453490Y-99482749D01*
X155773862Y-99350046D01*
X156062190Y-99157392D01*
X156307392Y-98912190D01*
X156500046Y-98623862D01*
X156632749Y-98303490D01*
X156700400Y-97963384D01*
X156700400Y-97616616D01*
X156632749Y-97276510D01*
X156500046Y-96956138D01*
X156307392Y-96667810D01*
X156062190Y-96422608D01*
X155773862Y-96229954D01*
X155453490Y-96097251D01*
X155113384Y-96029600D01*
X154766616Y-96029600D01*
X154581434Y-96066435D01*
X153952168Y-95437169D01*
X154106137Y-95540048D01*
X154426509Y-95672751D01*
X154766615Y-95740402D01*
X155113383Y-95740402D01*
X155453489Y-95672751D01*
X155773861Y-95540048D01*
X156062189Y-95347394D01*
X156307391Y-95102192D01*
X156500045Y-94813864D01*
X156632748Y-94493492D01*
X156700399Y-94153386D01*
X156700399Y-93806618D01*
X156632748Y-93466512D01*
X156500045Y-93146140D01*
X156307391Y-92857812D01*
X156062189Y-92612610D01*
X155773861Y-92419956D01*
X155453489Y-92287253D01*
X155113383Y-92219602D01*
X154766615Y-92219602D01*
X154581432Y-92256437D01*
X153519224Y-91194229D01*
X153633050Y-91100815D01*
X153670001Y-91055791D01*
X153706951Y-91100815D01*
X153971200Y-91317678D01*
X154272679Y-91478822D01*
X154599803Y-91578054D01*
X154940000Y-91611561D01*
X155280198Y-91578054D01*
X155607322Y-91478822D01*
X155908801Y-91317678D01*
X156173050Y-91100815D01*
X156210001Y-91055791D01*
X156246951Y-91100815D01*
X156511200Y-91317678D01*
X156812679Y-91478822D01*
X157139803Y-91578054D01*
X157480000Y-91611561D01*
X157820198Y-91578054D01*
X158147322Y-91478822D01*
X158448801Y-91317678D01*
X158713050Y-91100815D01*
X158750001Y-91055791D01*
X158786951Y-91100815D01*
X159051200Y-91317678D01*
X159352679Y-91478822D01*
X159679803Y-91578054D01*
X160020000Y-91611561D01*
X160360198Y-91578054D01*
X160687322Y-91478822D01*
X160988801Y-91317678D01*
X161253050Y-91100815D01*
X161290001Y-91055791D01*
X161326951Y-91100815D01*
X161591200Y-91317678D01*
X161892679Y-91478822D01*
X162219803Y-91578054D01*
X162560000Y-91611561D01*
X162900198Y-91578054D01*
X163227322Y-91478822D01*
X163528801Y-91317678D01*
X163793050Y-91100815D01*
X163830001Y-91055791D01*
X163866951Y-91100815D01*
X164131200Y-91317678D01*
X164432679Y-91478822D01*
X164759803Y-91578054D01*
X165100000Y-91611561D01*
X165440198Y-91578054D01*
X165767322Y-91478822D01*
X166068801Y-91317678D01*
X166333050Y-91100815D01*
X166370001Y-91055791D01*
X166406951Y-91100815D01*
X166671200Y-91317678D01*
X166972679Y-91478822D01*
X167299803Y-91578054D01*
X167640000Y-91611561D01*
X167980198Y-91578054D01*
X168307322Y-91478822D01*
X168608801Y-91317678D01*
X168873050Y-91100815D01*
X168910001Y-91055791D01*
X168946951Y-91100815D01*
X169211200Y-91317678D01*
X169512679Y-91478822D01*
X169839803Y-91578054D01*
X170180000Y-91611561D01*
X170520198Y-91578054D01*
X170847322Y-91478822D01*
X171148801Y-91317678D01*
X171413050Y-91100815D01*
X171629913Y-90836566D01*
X171791057Y-90535087D01*
X171890289Y-90207963D01*
X171915400Y-89953010D01*
X171915400Y-87632520D01*
X171890289Y-87377567D01*
X171791057Y-87050443D01*
X171629913Y-86748964D01*
X171413050Y-86484715D01*
X171148800Y-86267852D01*
X170847321Y-86106708D01*
X170520197Y-86007476D01*
X170180000Y-85973969D01*
X169839802Y-86007476D01*
X169512678Y-86106708D01*
X169211199Y-86267852D01*
X168946950Y-86484715D01*
X168910000Y-86529739D01*
X168873050Y-86484715D01*
X168608800Y-86267852D01*
X168307321Y-86106708D01*
X167980197Y-86007476D01*
X167640000Y-85973969D01*
X167299802Y-86007476D01*
X166972678Y-86106708D01*
X166671199Y-86267852D01*
X166406950Y-86484715D01*
X166370000Y-86529739D01*
X166333050Y-86484715D01*
X166068800Y-86267852D01*
X165767321Y-86106708D01*
X165440197Y-86007476D01*
X165100000Y-85973969D01*
X164759802Y-86007476D01*
X164432678Y-86106708D01*
X164131199Y-86267852D01*
X163866950Y-86484715D01*
X163830000Y-86529739D01*
X163793050Y-86484715D01*
X163528800Y-86267852D01*
X163227321Y-86106708D01*
X162900197Y-86007476D01*
X162560000Y-85973969D01*
X162219802Y-86007476D01*
X161892678Y-86106708D01*
X161591199Y-86267852D01*
X161326950Y-86484715D01*
X161290000Y-86529739D01*
X161253050Y-86484715D01*
X160988800Y-86267852D01*
X160687321Y-86106708D01*
X160360197Y-86007476D01*
X160020000Y-85973969D01*
X159679802Y-86007476D01*
X159352678Y-86106708D01*
X159051199Y-86267852D01*
X158786950Y-86484715D01*
X158750000Y-86529739D01*
X158713050Y-86484715D01*
X158448800Y-86267852D01*
X158147321Y-86106708D01*
X157820197Y-86007476D01*
X157480000Y-85973969D01*
X157139802Y-86007476D01*
X156812678Y-86106708D01*
X156511199Y-86267852D01*
X156246950Y-86484715D01*
X156210000Y-86529739D01*
X156173050Y-86484715D01*
X155908800Y-86267852D01*
X155607321Y-86106708D01*
X155280197Y-86007476D01*
X154940000Y-85973969D01*
X154599802Y-86007476D01*
X154272678Y-86106708D01*
X153971199Y-86267852D01*
X153706950Y-86484715D01*
X153670000Y-86529739D01*
X153633050Y-86484715D01*
X153368800Y-86267852D01*
X153365200Y-86265928D01*
X153365200Y-84360152D01*
X153490088Y-84593801D01*
X153706951Y-84858050D01*
X153971200Y-85074913D01*
X154272679Y-85236057D01*
X154599803Y-85335289D01*
X154940000Y-85368796D01*
X155280198Y-85335289D01*
X155607322Y-85236057D01*
X155908801Y-85074913D01*
X156173050Y-84858050D01*
X156213135Y-84809207D01*
X156360650Y-84959877D01*
X156642580Y-85152602D01*
X156956691Y-85286622D01*
X157059049Y-85308571D01*
X157327600Y-85187887D01*
X157327600Y-82702400D01*
X157632400Y-82702400D01*
X157632400Y-85187887D01*
X157900951Y-85308571D01*
X158003309Y-85286622D01*
X158317420Y-85152602D01*
X158599350Y-84959877D01*
X158838264Y-84715853D01*
X159024980Y-84429908D01*
X159152323Y-84113031D01*
X159215400Y-83777400D01*
X159215400Y-82702400D01*
X157632400Y-82702400D01*
X157327600Y-82702400D01*
X157307600Y-82702400D01*
X157307600Y-82397600D01*
X157327600Y-82397600D01*
X157327600Y-79912113D01*
X157632400Y-79912113D01*
X157632400Y-82397600D01*
X159215400Y-82397600D01*
X159215400Y-81322600D01*
X159152323Y-80986969D01*
X159053891Y-80742031D01*
X177737701Y-80742031D01*
X177737701Y-81193969D01*
X177825870Y-81637222D01*
X177998819Y-82054758D01*
X178249902Y-82430530D01*
X178569470Y-82750098D01*
X178945242Y-83001181D01*
X179362778Y-83174130D01*
X179806031Y-83262299D01*
X180257969Y-83262299D01*
X180701222Y-83174130D01*
X181118758Y-83001181D01*
X181494530Y-82750098D01*
X181814098Y-82430530D01*
X182065181Y-82054758D01*
X182238130Y-81637222D01*
X182326299Y-81193969D01*
X182326299Y-80742031D01*
X182238130Y-80298778D01*
X182065181Y-79881242D01*
X181814098Y-79505470D01*
X181494530Y-79185902D01*
X181118758Y-78934819D01*
X180701222Y-78761870D01*
X180257969Y-78673701D01*
X179806031Y-78673701D01*
X179362778Y-78761870D01*
X178945242Y-78934819D01*
X178569470Y-79185902D01*
X178249902Y-79505470D01*
X177998819Y-79881242D01*
X177825870Y-80298778D01*
X177737701Y-80742031D01*
X159053891Y-80742031D01*
X159024980Y-80670092D01*
X158838264Y-80384147D01*
X158599350Y-80140123D01*
X158317420Y-79947398D01*
X158003309Y-79813378D01*
X157900951Y-79791429D01*
X157632400Y-79912113D01*
X157327600Y-79912113D01*
X157059049Y-79791429D01*
X156956691Y-79813378D01*
X156642580Y-79947398D01*
X156360650Y-80140123D01*
X156213135Y-80290793D01*
X156173050Y-80241950D01*
X155908800Y-80025087D01*
X155607321Y-79863943D01*
X155280197Y-79764711D01*
X154940000Y-79731204D01*
X154599802Y-79764711D01*
X154272678Y-79863943D01*
X153971199Y-80025087D01*
X153706950Y-80241950D01*
X153490087Y-80506200D01*
X153328943Y-80807679D01*
X153229711Y-81134803D01*
X153204600Y-81389756D01*
X153204600Y-81585133D01*
X153066188Y-81598766D01*
X152884247Y-81653957D01*
X152716569Y-81743583D01*
X152569598Y-81864198D01*
X152539370Y-81901031D01*
X151751036Y-82689367D01*
X151714199Y-82719598D01*
X151607075Y-82850130D01*
X151593583Y-82866570D01*
X151565115Y-82919829D01*
X151503957Y-83034247D01*
X151448766Y-83216188D01*
X151434800Y-83357985D01*
X151430130Y-83405400D01*
X151434800Y-83452812D01*
X151434800Y-83867414D01*
X151434801Y-83867424D01*
X151434801Y-86265927D01*
X151431199Y-86267852D01*
X151166950Y-86484715D01*
X151130000Y-86529739D01*
X151093050Y-86484715D01*
X150828800Y-86267852D01*
X150825200Y-86265928D01*
X150825200Y-86080580D01*
X150829870Y-86033165D01*
X150811234Y-85843953D01*
X150756043Y-85662011D01*
X150711230Y-85578173D01*
X150666417Y-85494334D01*
X150545802Y-85347363D01*
X150508964Y-85317131D01*
X150204372Y-85012540D01*
X150174137Y-84975698D01*
X150027166Y-84855083D01*
X149859488Y-84765457D01*
X149677547Y-84710266D01*
X149535750Y-84696300D01*
X149535747Y-84696300D01*
X149488335Y-84691630D01*
X149440923Y-84696300D01*
X148691032Y-84696300D01*
X148864980Y-84429908D01*
X148992323Y-84113031D01*
X149055400Y-83777400D01*
X149055400Y-82702400D01*
X147472400Y-82702400D01*
X147472400Y-82722400D01*
X147167600Y-82722400D01*
X147167600Y-82702400D01*
X147147600Y-82702400D01*
X147147600Y-82397600D01*
X147167600Y-82397600D01*
X147167600Y-79912113D01*
X147472400Y-79912113D01*
X147472400Y-82397600D01*
X149055400Y-82397600D01*
X149055400Y-81322600D01*
X148992323Y-80986969D01*
X148864980Y-80670092D01*
X148678264Y-80384147D01*
X148439350Y-80140123D01*
X148157420Y-79947398D01*
X147843309Y-79813378D01*
X147740951Y-79791429D01*
X147472400Y-79912113D01*
X147167600Y-79912113D01*
X146899049Y-79791429D01*
X146796691Y-79813378D01*
X146482580Y-79947398D01*
X146200650Y-80140123D01*
X146053135Y-80290793D01*
X146013050Y-80241950D01*
X145748800Y-80025087D01*
X145447321Y-79863943D01*
X145120197Y-79764711D01*
X144780000Y-79731204D01*
X144439802Y-79764711D01*
X144112678Y-79863943D01*
X143811199Y-80025087D01*
X143546950Y-80241950D01*
X143510000Y-80286974D01*
X143473050Y-80241950D01*
X143208800Y-80025087D01*
X142907321Y-79863943D01*
X142580197Y-79764711D01*
X142240000Y-79731204D01*
X141899802Y-79764711D01*
X141572678Y-79863943D01*
X141271199Y-80025087D01*
X141006950Y-80241950D01*
X140790087Y-80506200D01*
X140628943Y-80807679D01*
X140529711Y-81134803D01*
X140504600Y-81389756D01*
X140504600Y-81584800D01*
X135937415Y-81584800D01*
X135890000Y-81580130D01*
X135700788Y-81598766D01*
X135518846Y-81653957D01*
X135351169Y-81743583D01*
X135204198Y-81864198D01*
X135173970Y-81901031D01*
X135096957Y-81978045D01*
X135238130Y-81637222D01*
X135326299Y-81193969D01*
X135326299Y-80742031D01*
X135238130Y-80298778D01*
X135065181Y-79881242D01*
X134814098Y-79505470D01*
X134494530Y-79185902D01*
X134118758Y-78934819D01*
X133701222Y-78761870D01*
X133257969Y-78673701D01*
X132806031Y-78673701D01*
X132362778Y-78761870D01*
X131945242Y-78934819D01*
X131569470Y-79185902D01*
X131249902Y-79505470D01*
X130998819Y-79881242D01*
X130825870Y-80298778D01*
X130737701Y-80742031D01*
X130737701Y-81193969D01*
X130825870Y-81637222D01*
X130998819Y-82054758D01*
X131249902Y-82430530D01*
X131569470Y-82750098D01*
X131945242Y-83001181D01*
X132362778Y-83174130D01*
X132806031Y-83262299D01*
X133257969Y-83262299D01*
X133701222Y-83174130D01*
X134118758Y-83001181D01*
X134244682Y-82917041D01*
X134231957Y-82940848D01*
X134176766Y-83122789D01*
X134167567Y-83216188D01*
X134158130Y-83312000D01*
X134162800Y-83359412D01*
X134162801Y-99520578D01*
X134158130Y-99568000D01*
X134176767Y-99757211D01*
X134231958Y-99939153D01*
X134259031Y-99989802D01*
X134321584Y-100106831D01*
X134442199Y-100253802D01*
X134479036Y-100284033D01*
X135523802Y-101328799D01*
X132797312Y-104055291D01*
X132749759Y-103966326D01*
X132667233Y-103865767D01*
X132587236Y-103800116D01*
X132650602Y-103707420D01*
X132784622Y-103393309D01*
X132806571Y-103290951D01*
X132685887Y-103022400D01*
X130200400Y-103022400D01*
X130200400Y-103042400D01*
X129895600Y-103042400D01*
X129895600Y-103022400D01*
X127410113Y-103022400D01*
X127289429Y-103290951D01*
X127311378Y-103393309D01*
X127445398Y-103707420D01*
X127508764Y-103800116D01*
X127428767Y-103865767D01*
X127346241Y-103966326D01*
X127284918Y-104081053D01*
X127247156Y-104205539D01*
X127234405Y-104335000D01*
X127234405Y-106485000D01*
X127247156Y-106614461D01*
X127284918Y-106738947D01*
X127346241Y-106853674D01*
X127428767Y-106954233D01*
X127466013Y-106984800D01*
X127399799Y-106984800D01*
X126695200Y-106280203D01*
X126695200Y-99748197D01*
X127595888Y-98847510D01*
X127739950Y-99023050D01*
X127784974Y-99060000D01*
X127739950Y-99096950D01*
X127523087Y-99361199D01*
X127361943Y-99662678D01*
X127262711Y-99989802D01*
X127229204Y-100330000D01*
X127262711Y-100670198D01*
X127361943Y-100997322D01*
X127523087Y-101298801D01*
X127739950Y-101563050D01*
X127788793Y-101603135D01*
X127638123Y-101750650D01*
X127445398Y-102032580D01*
X127311378Y-102346691D01*
X127289429Y-102449049D01*
X127410113Y-102717600D01*
X129895600Y-102717600D01*
X129895600Y-102697600D01*
X130200400Y-102697600D01*
X130200400Y-102717600D01*
X132685887Y-102717600D01*
X132806571Y-102449049D01*
X132784622Y-102346691D01*
X132650602Y-102032580D01*
X132457877Y-101750650D01*
X132307207Y-101603135D01*
X132356050Y-101563050D01*
X132572913Y-101298801D01*
X132734057Y-100997322D01*
X132833289Y-100670198D01*
X132866796Y-100330000D01*
X132833289Y-99989802D01*
X132832104Y-99985894D01*
X133744970Y-99073029D01*
X133781802Y-99042802D01*
X133902417Y-98895831D01*
X133992043Y-98728153D01*
X134047234Y-98546212D01*
X134061200Y-98404415D01*
X134061200Y-98404413D01*
X134065870Y-98357001D01*
X134061200Y-98309589D01*
X134061200Y-91995411D01*
X134065870Y-91947999D01*
X134061200Y-91900585D01*
X134047234Y-91758788D01*
X133992043Y-91576847D01*
X133902417Y-91409169D01*
X133781802Y-91262198D01*
X133744970Y-91231971D01*
X132288038Y-89775041D01*
X132257802Y-89738198D01*
X132110831Y-89617583D01*
X131943153Y-89527957D01*
X131761212Y-89472766D01*
X131619415Y-89458800D01*
X131619412Y-89458800D01*
X131572000Y-89454130D01*
X131524588Y-89458800D01*
X127555414Y-89458800D01*
X127508000Y-89454130D01*
X127460585Y-89458800D01*
X127318788Y-89472766D01*
X127136847Y-89527957D01*
X126969169Y-89617583D01*
X126822198Y-89738198D01*
X126791966Y-89775036D01*
X124129400Y-92437603D01*
X124129400Y-76885400D01*
X191605575Y-76885400D01*
X191592842Y-113106600D01*
M02*
