G04 #@! TF.GenerationSoftware,KiCad,Pcbnew,(5.1.5)-3*
G04 #@! TF.CreationDate,2020-03-27T21:35:25+01:00*
G04 #@! TF.ProjectId,LoraWAN,4c6f7261-5741-44e2-9e6b-696361645f70,rev?*
G04 #@! TF.SameCoordinates,Original*
G04 #@! TF.FileFunction,Legend,Top*
G04 #@! TF.FilePolarity,Positive*
%FSLAX46Y46*%
G04 Gerber Fmt 4.6, Leading zero omitted, Abs format (unit mm)*
G04 Created by KiCad (PCBNEW (5.1.5)-3) date 2020-03-27 21:35:25*
%MOMM*%
%LPD*%
G04 APERTURE LIST*
%ADD10C,0.150000*%
%ADD11C,0.010000*%
%ADD12C,0.120000*%
G04 APERTURE END LIST*
D10*
X133405714Y-98448761D02*
X133548571Y-98496380D01*
X133786666Y-98496380D01*
X133881904Y-98448761D01*
X133929523Y-98401142D01*
X133977142Y-98305904D01*
X133977142Y-98210666D01*
X133929523Y-98115428D01*
X133881904Y-98067809D01*
X133786666Y-98020190D01*
X133596190Y-97972571D01*
X133500952Y-97924952D01*
X133453333Y-97877333D01*
X133405714Y-97782095D01*
X133405714Y-97686857D01*
X133453333Y-97591619D01*
X133500952Y-97544000D01*
X133596190Y-97496380D01*
X133834285Y-97496380D01*
X133977142Y-97544000D01*
X134405714Y-98496380D02*
X134405714Y-97496380D01*
X134643809Y-97496380D01*
X134786666Y-97544000D01*
X134881904Y-97639238D01*
X134929523Y-97734476D01*
X134977142Y-97924952D01*
X134977142Y-98067809D01*
X134929523Y-98258285D01*
X134881904Y-98353523D01*
X134786666Y-98448761D01*
X134643809Y-98496380D01*
X134405714Y-98496380D01*
X135358095Y-98210666D02*
X135834285Y-98210666D01*
X135262857Y-98496380D02*
X135596190Y-97496380D01*
X135929523Y-98496380D01*
X133429523Y-100988761D02*
X133572380Y-101036380D01*
X133810476Y-101036380D01*
X133905714Y-100988761D01*
X133953333Y-100941142D01*
X134000952Y-100845904D01*
X134000952Y-100750666D01*
X133953333Y-100655428D01*
X133905714Y-100607809D01*
X133810476Y-100560190D01*
X133620000Y-100512571D01*
X133524761Y-100464952D01*
X133477142Y-100417333D01*
X133429523Y-100322095D01*
X133429523Y-100226857D01*
X133477142Y-100131619D01*
X133524761Y-100084000D01*
X133620000Y-100036380D01*
X133858095Y-100036380D01*
X134000952Y-100084000D01*
X135000952Y-100941142D02*
X134953333Y-100988761D01*
X134810476Y-101036380D01*
X134715238Y-101036380D01*
X134572380Y-100988761D01*
X134477142Y-100893523D01*
X134429523Y-100798285D01*
X134381904Y-100607809D01*
X134381904Y-100464952D01*
X134429523Y-100274476D01*
X134477142Y-100179238D01*
X134572380Y-100084000D01*
X134715238Y-100036380D01*
X134810476Y-100036380D01*
X134953333Y-100084000D01*
X135000952Y-100131619D01*
X135905714Y-101036380D02*
X135429523Y-101036380D01*
X135429523Y-100036380D01*
X133858095Y-102624000D02*
X133762857Y-102576380D01*
X133620000Y-102576380D01*
X133477142Y-102624000D01*
X133381904Y-102719238D01*
X133334285Y-102814476D01*
X133286666Y-103004952D01*
X133286666Y-103147809D01*
X133334285Y-103338285D01*
X133381904Y-103433523D01*
X133477142Y-103528761D01*
X133620000Y-103576380D01*
X133715238Y-103576380D01*
X133858095Y-103528761D01*
X133905714Y-103481142D01*
X133905714Y-103147809D01*
X133715238Y-103147809D01*
X134334285Y-103576380D02*
X134334285Y-102576380D01*
X134905714Y-103576380D01*
X134905714Y-102576380D01*
X135381904Y-103576380D02*
X135381904Y-102576380D01*
X135620000Y-102576380D01*
X135762857Y-102624000D01*
X135858095Y-102719238D01*
X135905714Y-102814476D01*
X135953333Y-103004952D01*
X135953333Y-103147809D01*
X135905714Y-103338285D01*
X135858095Y-103433523D01*
X135762857Y-103528761D01*
X135620000Y-103576380D01*
X135381904Y-103576380D01*
X132858095Y-105227428D02*
X133620000Y-105227428D01*
X133239047Y-105608380D02*
X133239047Y-104846476D01*
X134000952Y-104608380D02*
X134620000Y-104608380D01*
X134286666Y-104989333D01*
X134429523Y-104989333D01*
X134524761Y-105036952D01*
X134572380Y-105084571D01*
X134620000Y-105179809D01*
X134620000Y-105417904D01*
X134572380Y-105513142D01*
X134524761Y-105560761D01*
X134429523Y-105608380D01*
X134143809Y-105608380D01*
X134048571Y-105560761D01*
X134000952Y-105513142D01*
X134905714Y-104608380D02*
X135239047Y-105608380D01*
X135572380Y-104608380D01*
X135810476Y-104608380D02*
X136429523Y-104608380D01*
X136096190Y-104989333D01*
X136239047Y-104989333D01*
X136334285Y-105036952D01*
X136381904Y-105084571D01*
X136429523Y-105179809D01*
X136429523Y-105417904D01*
X136381904Y-105513142D01*
X136334285Y-105560761D01*
X136239047Y-105608380D01*
X135953333Y-105608380D01*
X135858095Y-105560761D01*
X135810476Y-105513142D01*
D11*
G36*
X180368748Y-102792065D02*
G01*
X180690321Y-102831761D01*
X181024093Y-102892021D01*
X181343442Y-102967575D01*
X181621744Y-103053155D01*
X181765607Y-103110568D01*
X182196334Y-103343762D01*
X182611947Y-103640918D01*
X182997713Y-103987715D01*
X183338901Y-104369834D01*
X183620778Y-104772956D01*
X183777966Y-105066516D01*
X183959258Y-105494727D01*
X184087342Y-105891392D01*
X184170099Y-106283581D01*
X184200042Y-106515794D01*
X184218728Y-107098764D01*
X184157083Y-107674655D01*
X184017773Y-108233684D01*
X183803467Y-108766066D01*
X183516830Y-109262018D01*
X183410963Y-109410500D01*
X183014747Y-109872579D01*
X182572626Y-110264798D01*
X182089395Y-110585102D01*
X181569850Y-110831438D01*
X181018788Y-111001751D01*
X180441004Y-111093987D01*
X179841295Y-111106094D01*
X179514500Y-111079120D01*
X179203913Y-111021782D01*
X178859684Y-110923497D01*
X178505762Y-110793897D01*
X178166098Y-110642614D01*
X177864641Y-110479281D01*
X177639707Y-110325120D01*
X177161226Y-109904054D01*
X176765693Y-109468702D01*
X176452473Y-109018293D01*
X176261571Y-108648500D01*
X176165046Y-108384759D01*
X176078314Y-108064469D01*
X176006853Y-107715634D01*
X175956144Y-107366262D01*
X175931665Y-107044359D01*
X175930258Y-106955167D01*
X175966519Y-106408302D01*
X176067455Y-105875667D01*
X179535667Y-105875667D01*
X179535667Y-107780667D01*
X180170667Y-107780667D01*
X180170667Y-105875667D01*
X179535667Y-105875667D01*
X176067455Y-105875667D01*
X176069789Y-105863354D01*
X176234584Y-105339781D01*
X176455416Y-104857040D01*
X176578490Y-104648000D01*
X179535667Y-104648000D01*
X179535667Y-105240667D01*
X180170667Y-105240667D01*
X180170667Y-105868224D01*
X180350583Y-105898235D01*
X180660293Y-105989095D01*
X180921963Y-106146034D01*
X181129459Y-106361557D01*
X181276645Y-106628173D01*
X181357386Y-106938390D01*
X181371389Y-107144839D01*
X181337010Y-107478845D01*
X181234212Y-107763812D01*
X181064349Y-107998657D01*
X180828778Y-108182300D01*
X180528854Y-108313660D01*
X180165930Y-108391654D01*
X179779083Y-108415347D01*
X179535667Y-108415667D01*
X179535667Y-109016836D01*
X180075417Y-108999433D01*
X180320079Y-108989041D01*
X180502048Y-108973890D01*
X180643288Y-108950608D01*
X180765761Y-108915828D01*
X180861872Y-108878765D01*
X181126036Y-108738436D01*
X181385221Y-108548255D01*
X181609705Y-108332026D01*
X181722435Y-108189513D01*
X181891726Y-107870698D01*
X181993549Y-107517593D01*
X182027793Y-107147202D01*
X181994350Y-106776529D01*
X181893110Y-106422581D01*
X181735794Y-106119960D01*
X181495215Y-105817032D01*
X181216214Y-105581988D01*
X180889894Y-105409397D01*
X180507361Y-105293826D01*
X180329417Y-105261233D01*
X180170667Y-105236830D01*
X180170667Y-104648000D01*
X179535667Y-104648000D01*
X176578490Y-104648000D01*
X176582615Y-104640994D01*
X176697785Y-104485008D01*
X176862036Y-104293892D01*
X177058010Y-104085000D01*
X177268353Y-103875690D01*
X177475708Y-103683315D01*
X177662721Y-103525233D01*
X177792994Y-103430615D01*
X178238356Y-103189524D01*
X178734795Y-102998305D01*
X179260921Y-102863043D01*
X179795346Y-102789823D01*
X180086000Y-102778200D01*
X180368748Y-102792065D01*
G37*
X180368748Y-102792065D02*
X180690321Y-102831761D01*
X181024093Y-102892021D01*
X181343442Y-102967575D01*
X181621744Y-103053155D01*
X181765607Y-103110568D01*
X182196334Y-103343762D01*
X182611947Y-103640918D01*
X182997713Y-103987715D01*
X183338901Y-104369834D01*
X183620778Y-104772956D01*
X183777966Y-105066516D01*
X183959258Y-105494727D01*
X184087342Y-105891392D01*
X184170099Y-106283581D01*
X184200042Y-106515794D01*
X184218728Y-107098764D01*
X184157083Y-107674655D01*
X184017773Y-108233684D01*
X183803467Y-108766066D01*
X183516830Y-109262018D01*
X183410963Y-109410500D01*
X183014747Y-109872579D01*
X182572626Y-110264798D01*
X182089395Y-110585102D01*
X181569850Y-110831438D01*
X181018788Y-111001751D01*
X180441004Y-111093987D01*
X179841295Y-111106094D01*
X179514500Y-111079120D01*
X179203913Y-111021782D01*
X178859684Y-110923497D01*
X178505762Y-110793897D01*
X178166098Y-110642614D01*
X177864641Y-110479281D01*
X177639707Y-110325120D01*
X177161226Y-109904054D01*
X176765693Y-109468702D01*
X176452473Y-109018293D01*
X176261571Y-108648500D01*
X176165046Y-108384759D01*
X176078314Y-108064469D01*
X176006853Y-107715634D01*
X175956144Y-107366262D01*
X175931665Y-107044359D01*
X175930258Y-106955167D01*
X175966519Y-106408302D01*
X176067455Y-105875667D01*
X179535667Y-105875667D01*
X179535667Y-107780667D01*
X180170667Y-107780667D01*
X180170667Y-105875667D01*
X179535667Y-105875667D01*
X176067455Y-105875667D01*
X176069789Y-105863354D01*
X176234584Y-105339781D01*
X176455416Y-104857040D01*
X176578490Y-104648000D01*
X179535667Y-104648000D01*
X179535667Y-105240667D01*
X180170667Y-105240667D01*
X180170667Y-105868224D01*
X180350583Y-105898235D01*
X180660293Y-105989095D01*
X180921963Y-106146034D01*
X181129459Y-106361557D01*
X181276645Y-106628173D01*
X181357386Y-106938390D01*
X181371389Y-107144839D01*
X181337010Y-107478845D01*
X181234212Y-107763812D01*
X181064349Y-107998657D01*
X180828778Y-108182300D01*
X180528854Y-108313660D01*
X180165930Y-108391654D01*
X179779083Y-108415347D01*
X179535667Y-108415667D01*
X179535667Y-109016836D01*
X180075417Y-108999433D01*
X180320079Y-108989041D01*
X180502048Y-108973890D01*
X180643288Y-108950608D01*
X180765761Y-108915828D01*
X180861872Y-108878765D01*
X181126036Y-108738436D01*
X181385221Y-108548255D01*
X181609705Y-108332026D01*
X181722435Y-108189513D01*
X181891726Y-107870698D01*
X181993549Y-107517593D01*
X182027793Y-107147202D01*
X181994350Y-106776529D01*
X181893110Y-106422581D01*
X181735794Y-106119960D01*
X181495215Y-105817032D01*
X181216214Y-105581988D01*
X180889894Y-105409397D01*
X180507361Y-105293826D01*
X180329417Y-105261233D01*
X180170667Y-105236830D01*
X180170667Y-104648000D01*
X179535667Y-104648000D01*
X176578490Y-104648000D01*
X176582615Y-104640994D01*
X176697785Y-104485008D01*
X176862036Y-104293892D01*
X177058010Y-104085000D01*
X177268353Y-103875690D01*
X177475708Y-103683315D01*
X177662721Y-103525233D01*
X177792994Y-103430615D01*
X178238356Y-103189524D01*
X178734795Y-102998305D01*
X179260921Y-102863043D01*
X179795346Y-102789823D01*
X180086000Y-102778200D01*
X180368748Y-102792065D01*
D10*
X136045800Y-87424565D02*
X135741000Y-87424565D01*
X135741000Y-87424565D02*
X135741000Y-90160965D01*
X135741000Y-90160965D02*
X136039000Y-90160965D01*
X148434200Y-87417765D02*
X148739000Y-87417765D01*
X145894200Y-90160965D02*
X146199000Y-90160965D01*
X171599000Y-90160965D02*
X171599000Y-87424565D01*
X143354200Y-90160965D02*
X143659000Y-90160965D01*
X140814200Y-90160965D02*
X141119000Y-90160965D01*
X148434200Y-90160965D02*
X148739000Y-90160965D01*
X145894200Y-87417765D02*
X146199000Y-87417765D01*
X153825800Y-87424565D02*
X153521000Y-87424565D01*
X171294200Y-90160965D02*
X171599000Y-90160965D01*
X140814200Y-87417765D02*
X141119000Y-87417765D01*
X158594200Y-90160965D02*
X158899000Y-90160965D01*
X163674200Y-90160965D02*
X163979000Y-90160965D01*
X166214200Y-90160965D02*
X166519000Y-90160965D01*
X156054200Y-90160965D02*
X156359000Y-90160965D01*
X168754200Y-90160965D02*
X169059000Y-90160965D01*
X161134200Y-90160965D02*
X161439000Y-90160965D01*
X143354200Y-87417765D02*
X143659000Y-87417765D01*
X153514200Y-90160965D02*
X153819000Y-90160965D01*
X169065800Y-87424565D02*
X168761000Y-87424565D01*
X166525800Y-87424565D02*
X166221000Y-87424565D01*
X163985800Y-87424565D02*
X163681000Y-87424565D01*
X161445800Y-87424565D02*
X161141000Y-87424565D01*
X158905800Y-87424565D02*
X158601000Y-87424565D01*
X156365800Y-87424565D02*
X156061000Y-87424565D01*
X151285800Y-87424565D02*
X150981000Y-87424565D01*
X150974200Y-90160965D02*
X151279000Y-90160965D01*
X171599000Y-87424565D02*
X171301000Y-87424565D01*
X138585800Y-87424565D02*
X138328400Y-87424565D01*
X138328400Y-90160965D02*
X138579000Y-90160965D01*
X135382000Y-110890765D02*
X135382000Y-109747765D01*
X135890000Y-110890765D02*
X135382000Y-110890765D01*
X135839200Y-110480965D02*
X135991600Y-110484365D01*
X135991600Y-107744565D02*
X135839200Y-107741165D01*
X138328400Y-110480965D02*
X138579000Y-110480965D01*
X138585800Y-107744565D02*
X138328400Y-107744565D01*
X171294200Y-110480965D02*
X171599000Y-110480965D01*
X171599000Y-107744565D02*
X171301000Y-107744565D01*
X150974200Y-110480965D02*
X151279000Y-110480965D01*
X151285800Y-107744565D02*
X150981000Y-107744565D01*
X153825800Y-107744565D02*
X153521000Y-107744565D01*
X156365800Y-107744565D02*
X156061000Y-107744565D01*
X158905800Y-107744565D02*
X158601000Y-107744565D01*
X161445800Y-107744565D02*
X161141000Y-107744565D01*
X163985800Y-107744565D02*
X163681000Y-107744565D01*
X166525800Y-107744565D02*
X166221000Y-107744565D01*
X169065800Y-107744565D02*
X168761000Y-107744565D01*
X168754200Y-110480965D02*
X169059000Y-110480965D01*
X166214200Y-110480965D02*
X166519000Y-110480965D01*
X163674200Y-110480965D02*
X163979000Y-110480965D01*
X161134200Y-110480965D02*
X161439000Y-110480965D01*
X158594200Y-110480965D02*
X158899000Y-110480965D01*
X156054200Y-110480965D02*
X156359000Y-110480965D01*
X153514200Y-110480965D02*
X153819000Y-110480965D01*
X140814200Y-107737765D02*
X141119000Y-107737765D01*
X143354200Y-107737765D02*
X143659000Y-107737765D01*
X145894200Y-107737765D02*
X146199000Y-107737765D01*
X148434200Y-107737765D02*
X148739000Y-107737765D01*
X135839200Y-110480965D02*
X135839200Y-107741165D01*
X138426600Y-110439365D02*
X138426600Y-107779365D01*
X148434200Y-110480965D02*
X148739000Y-110480965D01*
X140814200Y-110480965D02*
X141119000Y-110480965D01*
X143354200Y-110480965D02*
X143659000Y-110480965D01*
X145894200Y-110480965D02*
X146199000Y-110480965D01*
X171599000Y-110480965D02*
X171599000Y-107744565D01*
X128651000Y-91567000D02*
X128651000Y-91440000D01*
X128651000Y-94107000D02*
X128651000Y-93853000D01*
X128651000Y-96647000D02*
X128651000Y-96393000D01*
X128651000Y-99187000D02*
X128651000Y-98933000D01*
X128651000Y-101727000D02*
X128651000Y-101473000D01*
X128651000Y-104267000D02*
X128651000Y-104013000D01*
X128651000Y-106553000D02*
X128651000Y-106680000D01*
D12*
X128608000Y-91380000D02*
X125948000Y-91380000D01*
X125948000Y-91380000D02*
X125948000Y-106740000D01*
X125948000Y-106740000D02*
X128608000Y-106740000D01*
X128608000Y-104140000D02*
X125948000Y-104140000D01*
X128608000Y-101600000D02*
X125948000Y-101600000D01*
X128608000Y-99060000D02*
X125948000Y-99060000D01*
X128608000Y-96520000D02*
X125948000Y-96520000D01*
X128608000Y-93980000D02*
X125948000Y-93980000D01*
X132334000Y-105410000D02*
X132334000Y-106680000D01*
X132334000Y-106680000D02*
X131064000Y-106680000D01*
X156159200Y-97790000D02*
X156750000Y-97790000D01*
X163880800Y-97790000D02*
X163290000Y-97790000D01*
X156750000Y-99160000D02*
X163290000Y-99160000D01*
X156750000Y-96420000D02*
X156750000Y-99160000D01*
X163290000Y-96420000D02*
X156750000Y-96420000D01*
X163290000Y-99160000D02*
X163290000Y-96420000D01*
X156159199Y-93980002D02*
X156749999Y-93980002D01*
X163880799Y-93980002D02*
X163289999Y-93980002D01*
X156749999Y-95350002D02*
X163289999Y-95350002D01*
X156749999Y-92610002D02*
X156749999Y-95350002D01*
X163289999Y-92610002D02*
X156749999Y-92610002D01*
X163289999Y-95350002D02*
X163289999Y-92610002D01*
D10*
X145897600Y-81178400D02*
X146202400Y-81178400D01*
X143510000Y-81178400D02*
X143662400Y-81178400D01*
X148640800Y-81178400D02*
X148437600Y-81178400D01*
X148437600Y-83921600D02*
X148640800Y-83921600D01*
X145897600Y-83921600D02*
X146202400Y-83921600D01*
X143510000Y-83921600D02*
X143662400Y-83921600D01*
X140919200Y-83921600D02*
X141122400Y-83921600D01*
D12*
X148650000Y-83880000D02*
X148650000Y-81220000D01*
X143510000Y-83880000D02*
X143510000Y-81220000D01*
X140910000Y-83880000D02*
X140910000Y-82550000D01*
X153610000Y-83880000D02*
X153610000Y-82550000D01*
X156210000Y-83880000D02*
X156210000Y-81220000D01*
X158810000Y-83880000D02*
X158810000Y-81220000D01*
D10*
X153619200Y-83921600D02*
X153822400Y-83921600D01*
X156210000Y-83921600D02*
X156362400Y-83921600D01*
X158597600Y-83921600D02*
X158800800Y-83921600D01*
X158800800Y-81178400D02*
X158597600Y-81178400D01*
X156210000Y-81178400D02*
X156362400Y-81178400D01*
X136461595Y-104290880D02*
X136461595Y-105100404D01*
X136509214Y-105195642D01*
X136556833Y-105243261D01*
X136652071Y-105290880D01*
X136842547Y-105290880D01*
X136937785Y-105243261D01*
X136985404Y-105195642D01*
X137033023Y-105100404D01*
X137033023Y-104290880D01*
X138033023Y-105290880D02*
X137461595Y-105290880D01*
X137747309Y-105290880D02*
X137747309Y-104290880D01*
X137652071Y-104433738D01*
X137556833Y-104528976D01*
X137461595Y-104576595D01*
X128825666Y-107529380D02*
X128825666Y-108243666D01*
X128778047Y-108386523D01*
X128682809Y-108481761D01*
X128539952Y-108529380D01*
X128444714Y-108529380D01*
X129825666Y-108529380D02*
X129254238Y-108529380D01*
X129539952Y-108529380D02*
X129539952Y-107529380D01*
X129444714Y-107672238D01*
X129349476Y-107767476D01*
X129254238Y-107815095D01*
X167473333Y-98242380D02*
X167140000Y-97766190D01*
X166901904Y-98242380D02*
X166901904Y-97242380D01*
X167282857Y-97242380D01*
X167378095Y-97290000D01*
X167425714Y-97337619D01*
X167473333Y-97432857D01*
X167473333Y-97575714D01*
X167425714Y-97670952D01*
X167378095Y-97718571D01*
X167282857Y-97766190D01*
X166901904Y-97766190D01*
X167854285Y-97337619D02*
X167901904Y-97290000D01*
X167997142Y-97242380D01*
X168235238Y-97242380D01*
X168330476Y-97290000D01*
X168378095Y-97337619D01*
X168425714Y-97432857D01*
X168425714Y-97528095D01*
X168378095Y-97670952D01*
X167806666Y-98242380D01*
X168425714Y-98242380D01*
X167473333Y-94432380D02*
X167140000Y-93956190D01*
X166901904Y-94432380D02*
X166901904Y-93432380D01*
X167282857Y-93432380D01*
X167378095Y-93480000D01*
X167425714Y-93527619D01*
X167473333Y-93622857D01*
X167473333Y-93765714D01*
X167425714Y-93860952D01*
X167378095Y-93908571D01*
X167282857Y-93956190D01*
X166901904Y-93956190D01*
X168425714Y-94432380D02*
X167854285Y-94432380D01*
X168140000Y-94432380D02*
X168140000Y-93432380D01*
X168044761Y-93575238D01*
X167949523Y-93670476D01*
X167854285Y-93718095D01*
X138866666Y-82052380D02*
X138866666Y-82766666D01*
X138819047Y-82909523D01*
X138723809Y-83004761D01*
X138580952Y-83052380D01*
X138485714Y-83052380D01*
X139247619Y-82052380D02*
X139866666Y-82052380D01*
X139533333Y-82433333D01*
X139676190Y-82433333D01*
X139771428Y-82480952D01*
X139819047Y-82528571D01*
X139866666Y-82623809D01*
X139866666Y-82861904D01*
X139819047Y-82957142D01*
X139771428Y-83004761D01*
X139676190Y-83052380D01*
X139390476Y-83052380D01*
X139295238Y-83004761D01*
X139247619Y-82957142D01*
X151736666Y-82052380D02*
X151736666Y-82766666D01*
X151689047Y-82909523D01*
X151593809Y-83004761D01*
X151450952Y-83052380D01*
X151355714Y-83052380D01*
X152165238Y-82147619D02*
X152212857Y-82100000D01*
X152308095Y-82052380D01*
X152546190Y-82052380D01*
X152641428Y-82100000D01*
X152689047Y-82147619D01*
X152736666Y-82242857D01*
X152736666Y-82338095D01*
X152689047Y-82480952D01*
X152117619Y-83052380D01*
X152736666Y-83052380D01*
M02*
