M48
INCH,TZ
T1C0.0315
T2C0.0394
%
G90
G05
T1
X61000Y-38500
X65000Y-38500
X61000Y-37000
X65000Y-37000
T2
X61000Y-32500
X62000Y-32500
X51200Y-36500
X51200Y-37500
X51200Y-38500
X51200Y-39500
X51200Y-40500
X51200Y-41500
X56000Y-32500
X57000Y-32500
X58000Y-32500
X54000Y-34958
X54000Y-42958
X55000Y-34958
X55000Y-42958
X56000Y-34958
X56000Y-42958
X57000Y-34958
X57000Y-42958
X58000Y-34958
X58000Y-42958
X59000Y-34958
X59000Y-42958
X60000Y-34958
X60000Y-42958
X61000Y-34958
X61000Y-42958
X62000Y-34958
X62000Y-42958
X63000Y-34958
X63000Y-42958
X64000Y-34958
X64000Y-42958
X65000Y-34958
X65000Y-42958
X66000Y-34958
X66000Y-42958
X67000Y-34958
X67000Y-42958
T0
M30
