G04 #@! TF.GenerationSoftware,KiCad,Pcbnew,(5.1.5)-3*
G04 #@! TF.CreationDate,2020-03-27T21:35:25+01:00*
G04 #@! TF.ProjectId,LoraWAN,4c6f7261-5741-44e2-9e6b-696361645f70,rev?*
G04 #@! TF.SameCoordinates,Original*
G04 #@! TF.FileFunction,Soldermask,Top*
G04 #@! TF.FilePolarity,Negative*
%FSLAX46Y46*%
G04 Gerber Fmt 4.6, Leading zero omitted, Abs format (unit mm)*
G04 Created by KiCad (PCBNEW (5.1.5)-3) date 2020-03-27 21:35:25*
%MOMM*%
%LPD*%
G04 APERTURE LIST*
%ADD10C,0.100000*%
G04 APERTURE END LIST*
D10*
G36*
X170410653Y-106878189D02*
G01*
X170632443Y-106945469D01*
X170836846Y-107054724D01*
X171016007Y-107201758D01*
X171163041Y-107380918D01*
X171272296Y-107585321D01*
X171339576Y-107807111D01*
X171356600Y-107979962D01*
X171356600Y-110245568D01*
X171339576Y-110418419D01*
X171272296Y-110640209D01*
X171163041Y-110844612D01*
X171016007Y-111023772D01*
X170836847Y-111170806D01*
X170632444Y-111280061D01*
X170410654Y-111347341D01*
X170180000Y-111370058D01*
X169949347Y-111347341D01*
X169727557Y-111280061D01*
X169523154Y-111170806D01*
X169343994Y-111023772D01*
X169196960Y-110844612D01*
X169087705Y-110640209D01*
X169029610Y-110448698D01*
X169020240Y-110426078D01*
X169006627Y-110405704D01*
X168989300Y-110388377D01*
X168968925Y-110374763D01*
X168946286Y-110365385D01*
X168922253Y-110360605D01*
X168897749Y-110360605D01*
X168873716Y-110365385D01*
X168851077Y-110374763D01*
X168830703Y-110388376D01*
X168813376Y-110405703D01*
X168799762Y-110426078D01*
X168790387Y-110448712D01*
X168732296Y-110640209D01*
X168623041Y-110844612D01*
X168476007Y-111023772D01*
X168296847Y-111170806D01*
X168092444Y-111280061D01*
X167870654Y-111347341D01*
X167640000Y-111370058D01*
X167409347Y-111347341D01*
X167187557Y-111280061D01*
X166983154Y-111170806D01*
X166803994Y-111023772D01*
X166656960Y-110844612D01*
X166547705Y-110640209D01*
X166489610Y-110448698D01*
X166480240Y-110426078D01*
X166466627Y-110405704D01*
X166449300Y-110388377D01*
X166428925Y-110374763D01*
X166406286Y-110365385D01*
X166382253Y-110360605D01*
X166357749Y-110360605D01*
X166333716Y-110365385D01*
X166311077Y-110374763D01*
X166290703Y-110388376D01*
X166273376Y-110405703D01*
X166259762Y-110426078D01*
X166250387Y-110448712D01*
X166192296Y-110640209D01*
X166083041Y-110844612D01*
X165936007Y-111023772D01*
X165756847Y-111170806D01*
X165552444Y-111280061D01*
X165330654Y-111347341D01*
X165100000Y-111370058D01*
X164869347Y-111347341D01*
X164647557Y-111280061D01*
X164443154Y-111170806D01*
X164263994Y-111023772D01*
X164116960Y-110844612D01*
X164007705Y-110640209D01*
X163949610Y-110448698D01*
X163940240Y-110426078D01*
X163926627Y-110405704D01*
X163909300Y-110388377D01*
X163888925Y-110374763D01*
X163866286Y-110365385D01*
X163842253Y-110360605D01*
X163817749Y-110360605D01*
X163793716Y-110365385D01*
X163771077Y-110374763D01*
X163750703Y-110388376D01*
X163733376Y-110405703D01*
X163719762Y-110426078D01*
X163710387Y-110448712D01*
X163652296Y-110640209D01*
X163543041Y-110844612D01*
X163396007Y-111023772D01*
X163216847Y-111170806D01*
X163012444Y-111280061D01*
X162790654Y-111347341D01*
X162560000Y-111370058D01*
X162329347Y-111347341D01*
X162107557Y-111280061D01*
X161903154Y-111170806D01*
X161723994Y-111023772D01*
X161576960Y-110844612D01*
X161467705Y-110640209D01*
X161409610Y-110448698D01*
X161400240Y-110426078D01*
X161386627Y-110405704D01*
X161369300Y-110388377D01*
X161348925Y-110374763D01*
X161326286Y-110365385D01*
X161302253Y-110360605D01*
X161277749Y-110360605D01*
X161253716Y-110365385D01*
X161231077Y-110374763D01*
X161210703Y-110388376D01*
X161193376Y-110405703D01*
X161179762Y-110426078D01*
X161170387Y-110448712D01*
X161112296Y-110640209D01*
X161003041Y-110844612D01*
X160856007Y-111023772D01*
X160676847Y-111170806D01*
X160472444Y-111280061D01*
X160250654Y-111347341D01*
X160020000Y-111370058D01*
X159789347Y-111347341D01*
X159567557Y-111280061D01*
X159363154Y-111170806D01*
X159183994Y-111023772D01*
X159036960Y-110844612D01*
X158927705Y-110640209D01*
X158869610Y-110448698D01*
X158860240Y-110426078D01*
X158846627Y-110405704D01*
X158829300Y-110388377D01*
X158808925Y-110374763D01*
X158786286Y-110365385D01*
X158762253Y-110360605D01*
X158737749Y-110360605D01*
X158713716Y-110365385D01*
X158691077Y-110374763D01*
X158670703Y-110388376D01*
X158653376Y-110405703D01*
X158639762Y-110426078D01*
X158630387Y-110448712D01*
X158572296Y-110640209D01*
X158463041Y-110844612D01*
X158316007Y-111023772D01*
X158136847Y-111170806D01*
X157932444Y-111280061D01*
X157710654Y-111347341D01*
X157480000Y-111370058D01*
X157249347Y-111347341D01*
X157027557Y-111280061D01*
X156823154Y-111170806D01*
X156643994Y-111023772D01*
X156496960Y-110844612D01*
X156387705Y-110640209D01*
X156329610Y-110448698D01*
X156320240Y-110426078D01*
X156306627Y-110405704D01*
X156289300Y-110388377D01*
X156268925Y-110374763D01*
X156246286Y-110365385D01*
X156222253Y-110360605D01*
X156197749Y-110360605D01*
X156173716Y-110365385D01*
X156151077Y-110374763D01*
X156130703Y-110388376D01*
X156113376Y-110405703D01*
X156099762Y-110426078D01*
X156090387Y-110448712D01*
X156032296Y-110640209D01*
X155923041Y-110844612D01*
X155776007Y-111023772D01*
X155596847Y-111170806D01*
X155392444Y-111280061D01*
X155170654Y-111347341D01*
X154940000Y-111370058D01*
X154709347Y-111347341D01*
X154487557Y-111280061D01*
X154283154Y-111170806D01*
X154103994Y-111023772D01*
X153956960Y-110844612D01*
X153847705Y-110640209D01*
X153789610Y-110448698D01*
X153780240Y-110426078D01*
X153766627Y-110405704D01*
X153749300Y-110388377D01*
X153728925Y-110374763D01*
X153706286Y-110365385D01*
X153682253Y-110360605D01*
X153657749Y-110360605D01*
X153633716Y-110365385D01*
X153611077Y-110374763D01*
X153590703Y-110388376D01*
X153573376Y-110405703D01*
X153559762Y-110426078D01*
X153550387Y-110448712D01*
X153492296Y-110640209D01*
X153383041Y-110844612D01*
X153236007Y-111023772D01*
X153056847Y-111170806D01*
X152852444Y-111280061D01*
X152630654Y-111347341D01*
X152400000Y-111370058D01*
X152169347Y-111347341D01*
X151947557Y-111280061D01*
X151743154Y-111170806D01*
X151563994Y-111023772D01*
X151416960Y-110844612D01*
X151307705Y-110640209D01*
X151249610Y-110448698D01*
X151240240Y-110426078D01*
X151226627Y-110405704D01*
X151209300Y-110388377D01*
X151188925Y-110374763D01*
X151166286Y-110365385D01*
X151142253Y-110360605D01*
X151117749Y-110360605D01*
X151093716Y-110365385D01*
X151071077Y-110374763D01*
X151050703Y-110388376D01*
X151033376Y-110405703D01*
X151019762Y-110426078D01*
X151010387Y-110448712D01*
X150952296Y-110640209D01*
X150843041Y-110844612D01*
X150696007Y-111023772D01*
X150516847Y-111170806D01*
X150312444Y-111280061D01*
X150090654Y-111347341D01*
X149860000Y-111370058D01*
X149629347Y-111347341D01*
X149407557Y-111280061D01*
X149203154Y-111170806D01*
X149023994Y-111023772D01*
X148876960Y-110844612D01*
X148767705Y-110640209D01*
X148709610Y-110448698D01*
X148700240Y-110426078D01*
X148686627Y-110405704D01*
X148669300Y-110388377D01*
X148648925Y-110374763D01*
X148626286Y-110365385D01*
X148602253Y-110360605D01*
X148577749Y-110360605D01*
X148553716Y-110365385D01*
X148531077Y-110374763D01*
X148510703Y-110388376D01*
X148493376Y-110405703D01*
X148479762Y-110426078D01*
X148470387Y-110448712D01*
X148412296Y-110640209D01*
X148303041Y-110844612D01*
X148156007Y-111023772D01*
X147976847Y-111170806D01*
X147772444Y-111280061D01*
X147550654Y-111347341D01*
X147320000Y-111370058D01*
X147089347Y-111347341D01*
X146867557Y-111280061D01*
X146663154Y-111170806D01*
X146483994Y-111023772D01*
X146336960Y-110844612D01*
X146227705Y-110640209D01*
X146169610Y-110448698D01*
X146160240Y-110426078D01*
X146146627Y-110405704D01*
X146129300Y-110388377D01*
X146108925Y-110374763D01*
X146086286Y-110365385D01*
X146062253Y-110360605D01*
X146037749Y-110360605D01*
X146013716Y-110365385D01*
X145991077Y-110374763D01*
X145970703Y-110388376D01*
X145953376Y-110405703D01*
X145939762Y-110426078D01*
X145930387Y-110448712D01*
X145872296Y-110640209D01*
X145763041Y-110844612D01*
X145616007Y-111023772D01*
X145436847Y-111170806D01*
X145232444Y-111280061D01*
X145010654Y-111347341D01*
X144780000Y-111370058D01*
X144549347Y-111347341D01*
X144327557Y-111280061D01*
X144123154Y-111170806D01*
X143943994Y-111023772D01*
X143796960Y-110844612D01*
X143687705Y-110640209D01*
X143629610Y-110448698D01*
X143620240Y-110426078D01*
X143606627Y-110405704D01*
X143589300Y-110388377D01*
X143568925Y-110374763D01*
X143546286Y-110365385D01*
X143522253Y-110360605D01*
X143497749Y-110360605D01*
X143473716Y-110365385D01*
X143451077Y-110374763D01*
X143430703Y-110388376D01*
X143413376Y-110405703D01*
X143399762Y-110426078D01*
X143390387Y-110448712D01*
X143332296Y-110640209D01*
X143223041Y-110844612D01*
X143076007Y-111023772D01*
X142896847Y-111170806D01*
X142692444Y-111280061D01*
X142470654Y-111347341D01*
X142240000Y-111370058D01*
X142009347Y-111347341D01*
X141787557Y-111280061D01*
X141583154Y-111170806D01*
X141403994Y-111023772D01*
X141256960Y-110844612D01*
X141147705Y-110640209D01*
X141089610Y-110448698D01*
X141080240Y-110426078D01*
X141066627Y-110405704D01*
X141049300Y-110388377D01*
X141028925Y-110374763D01*
X141006286Y-110365385D01*
X140982253Y-110360605D01*
X140957749Y-110360605D01*
X140933716Y-110365385D01*
X140911077Y-110374763D01*
X140890703Y-110388376D01*
X140873376Y-110405703D01*
X140859762Y-110426078D01*
X140850387Y-110448712D01*
X140792296Y-110640209D01*
X140683041Y-110844612D01*
X140536007Y-111023772D01*
X140356847Y-111170806D01*
X140152444Y-111280061D01*
X139930654Y-111347341D01*
X139700000Y-111370058D01*
X139469347Y-111347341D01*
X139247557Y-111280061D01*
X139043154Y-111170806D01*
X138863994Y-111023772D01*
X138716960Y-110844612D01*
X138607705Y-110640209D01*
X138581210Y-110552867D01*
X138571838Y-110530244D01*
X138558224Y-110509869D01*
X138540897Y-110492542D01*
X138520523Y-110478929D01*
X138497884Y-110469551D01*
X138473851Y-110464771D01*
X138449347Y-110464771D01*
X138425313Y-110469551D01*
X138402675Y-110478929D01*
X138382300Y-110492543D01*
X138364973Y-110509870D01*
X138351360Y-110530244D01*
X138341982Y-110552883D01*
X138336600Y-110589168D01*
X138336600Y-111364365D01*
X135983400Y-111364365D01*
X135983400Y-106861165D01*
X138336600Y-106861165D01*
X138336600Y-107636360D01*
X138339002Y-107660746D01*
X138346115Y-107684195D01*
X138357666Y-107705806D01*
X138373211Y-107724748D01*
X138392153Y-107740293D01*
X138413764Y-107751844D01*
X138437213Y-107758957D01*
X138461599Y-107761359D01*
X138485985Y-107758957D01*
X138509434Y-107751844D01*
X138531045Y-107740293D01*
X138549987Y-107724748D01*
X138565532Y-107705806D01*
X138581212Y-107672653D01*
X138607704Y-107585322D01*
X138716959Y-107380919D01*
X138863993Y-107201758D01*
X139043153Y-107054724D01*
X139247556Y-106945469D01*
X139469346Y-106878189D01*
X139700000Y-106855472D01*
X139930653Y-106878189D01*
X140152443Y-106945469D01*
X140356846Y-107054724D01*
X140536007Y-107201758D01*
X140683041Y-107380918D01*
X140792296Y-107585321D01*
X140850390Y-107776828D01*
X140859761Y-107799451D01*
X140873375Y-107819826D01*
X140890702Y-107837153D01*
X140911076Y-107850766D01*
X140933715Y-107860144D01*
X140957748Y-107864924D01*
X140982252Y-107864924D01*
X141006285Y-107860144D01*
X141028924Y-107850766D01*
X141049299Y-107837152D01*
X141066626Y-107819825D01*
X141080239Y-107799451D01*
X141089610Y-107776829D01*
X141147704Y-107585322D01*
X141256959Y-107380919D01*
X141403993Y-107201758D01*
X141583153Y-107054724D01*
X141787556Y-106945469D01*
X142009346Y-106878189D01*
X142240000Y-106855472D01*
X142470653Y-106878189D01*
X142692443Y-106945469D01*
X142896846Y-107054724D01*
X143076007Y-107201758D01*
X143223041Y-107380918D01*
X143332296Y-107585321D01*
X143390390Y-107776828D01*
X143399761Y-107799451D01*
X143413375Y-107819826D01*
X143430702Y-107837153D01*
X143451076Y-107850766D01*
X143473715Y-107860144D01*
X143497748Y-107864924D01*
X143522252Y-107864924D01*
X143546285Y-107860144D01*
X143568924Y-107850766D01*
X143589299Y-107837152D01*
X143606626Y-107819825D01*
X143620239Y-107799451D01*
X143629610Y-107776829D01*
X143687704Y-107585322D01*
X143796959Y-107380919D01*
X143943993Y-107201758D01*
X144123153Y-107054724D01*
X144327556Y-106945469D01*
X144549346Y-106878189D01*
X144780000Y-106855472D01*
X145010653Y-106878189D01*
X145232443Y-106945469D01*
X145436846Y-107054724D01*
X145616007Y-107201758D01*
X145763041Y-107380918D01*
X145872296Y-107585321D01*
X145930390Y-107776828D01*
X145939761Y-107799451D01*
X145953375Y-107819826D01*
X145970702Y-107837153D01*
X145991076Y-107850766D01*
X146013715Y-107860144D01*
X146037748Y-107864924D01*
X146062252Y-107864924D01*
X146086285Y-107860144D01*
X146108924Y-107850766D01*
X146129299Y-107837152D01*
X146146626Y-107819825D01*
X146160239Y-107799451D01*
X146169610Y-107776829D01*
X146227704Y-107585322D01*
X146336959Y-107380919D01*
X146483993Y-107201758D01*
X146663153Y-107054724D01*
X146867556Y-106945469D01*
X147089346Y-106878189D01*
X147320000Y-106855472D01*
X147550653Y-106878189D01*
X147772443Y-106945469D01*
X147976846Y-107054724D01*
X148156007Y-107201758D01*
X148303041Y-107380918D01*
X148412296Y-107585321D01*
X148470390Y-107776828D01*
X148479761Y-107799451D01*
X148493375Y-107819826D01*
X148510702Y-107837153D01*
X148531076Y-107850766D01*
X148553715Y-107860144D01*
X148577748Y-107864924D01*
X148602252Y-107864924D01*
X148626285Y-107860144D01*
X148648924Y-107850766D01*
X148669299Y-107837152D01*
X148686626Y-107819825D01*
X148700239Y-107799451D01*
X148709610Y-107776829D01*
X148767704Y-107585322D01*
X148876959Y-107380919D01*
X149023993Y-107201758D01*
X149203153Y-107054724D01*
X149407556Y-106945469D01*
X149629346Y-106878189D01*
X149860000Y-106855472D01*
X150090653Y-106878189D01*
X150312443Y-106945469D01*
X150516846Y-107054724D01*
X150696007Y-107201758D01*
X150843041Y-107380918D01*
X150952296Y-107585321D01*
X151010390Y-107776828D01*
X151019761Y-107799451D01*
X151033375Y-107819826D01*
X151050702Y-107837153D01*
X151071076Y-107850766D01*
X151093715Y-107860144D01*
X151117748Y-107864924D01*
X151142252Y-107864924D01*
X151166285Y-107860144D01*
X151188924Y-107850766D01*
X151209299Y-107837152D01*
X151226626Y-107819825D01*
X151240239Y-107799451D01*
X151249610Y-107776829D01*
X151307704Y-107585322D01*
X151416959Y-107380919D01*
X151563993Y-107201758D01*
X151743153Y-107054724D01*
X151947556Y-106945469D01*
X152169346Y-106878189D01*
X152400000Y-106855472D01*
X152630653Y-106878189D01*
X152852443Y-106945469D01*
X153056846Y-107054724D01*
X153236007Y-107201758D01*
X153383041Y-107380918D01*
X153492296Y-107585321D01*
X153550390Y-107776828D01*
X153559761Y-107799451D01*
X153573375Y-107819826D01*
X153590702Y-107837153D01*
X153611076Y-107850766D01*
X153633715Y-107860144D01*
X153657748Y-107864924D01*
X153682252Y-107864924D01*
X153706285Y-107860144D01*
X153728924Y-107850766D01*
X153749299Y-107837152D01*
X153766626Y-107819825D01*
X153780239Y-107799451D01*
X153789610Y-107776829D01*
X153847704Y-107585322D01*
X153956959Y-107380919D01*
X154103993Y-107201758D01*
X154283153Y-107054724D01*
X154487556Y-106945469D01*
X154709346Y-106878189D01*
X154940000Y-106855472D01*
X155170653Y-106878189D01*
X155392443Y-106945469D01*
X155596846Y-107054724D01*
X155776007Y-107201758D01*
X155923041Y-107380918D01*
X156032296Y-107585321D01*
X156090390Y-107776828D01*
X156099761Y-107799451D01*
X156113375Y-107819826D01*
X156130702Y-107837153D01*
X156151076Y-107850766D01*
X156173715Y-107860144D01*
X156197748Y-107864924D01*
X156222252Y-107864924D01*
X156246285Y-107860144D01*
X156268924Y-107850766D01*
X156289299Y-107837152D01*
X156306626Y-107819825D01*
X156320239Y-107799451D01*
X156329610Y-107776829D01*
X156387704Y-107585322D01*
X156496959Y-107380919D01*
X156643993Y-107201758D01*
X156823153Y-107054724D01*
X157027556Y-106945469D01*
X157249346Y-106878189D01*
X157480000Y-106855472D01*
X157710653Y-106878189D01*
X157932443Y-106945469D01*
X158136846Y-107054724D01*
X158316007Y-107201758D01*
X158463041Y-107380918D01*
X158572296Y-107585321D01*
X158630390Y-107776828D01*
X158639761Y-107799451D01*
X158653375Y-107819826D01*
X158670702Y-107837153D01*
X158691076Y-107850766D01*
X158713715Y-107860144D01*
X158737748Y-107864924D01*
X158762252Y-107864924D01*
X158786285Y-107860144D01*
X158808924Y-107850766D01*
X158829299Y-107837152D01*
X158846626Y-107819825D01*
X158860239Y-107799451D01*
X158869610Y-107776829D01*
X158927704Y-107585322D01*
X159036959Y-107380919D01*
X159183993Y-107201758D01*
X159363153Y-107054724D01*
X159567556Y-106945469D01*
X159789346Y-106878189D01*
X160020000Y-106855472D01*
X160250653Y-106878189D01*
X160472443Y-106945469D01*
X160676846Y-107054724D01*
X160856007Y-107201758D01*
X161003041Y-107380918D01*
X161112296Y-107585321D01*
X161170390Y-107776828D01*
X161179761Y-107799451D01*
X161193375Y-107819826D01*
X161210702Y-107837153D01*
X161231076Y-107850766D01*
X161253715Y-107860144D01*
X161277748Y-107864924D01*
X161302252Y-107864924D01*
X161326285Y-107860144D01*
X161348924Y-107850766D01*
X161369299Y-107837152D01*
X161386626Y-107819825D01*
X161400239Y-107799451D01*
X161409610Y-107776829D01*
X161467704Y-107585322D01*
X161576959Y-107380919D01*
X161723993Y-107201758D01*
X161903153Y-107054724D01*
X162107556Y-106945469D01*
X162329346Y-106878189D01*
X162560000Y-106855472D01*
X162790653Y-106878189D01*
X163012443Y-106945469D01*
X163216846Y-107054724D01*
X163396007Y-107201758D01*
X163543041Y-107380918D01*
X163652296Y-107585321D01*
X163710390Y-107776828D01*
X163719761Y-107799451D01*
X163733375Y-107819826D01*
X163750702Y-107837153D01*
X163771076Y-107850766D01*
X163793715Y-107860144D01*
X163817748Y-107864924D01*
X163842252Y-107864924D01*
X163866285Y-107860144D01*
X163888924Y-107850766D01*
X163909299Y-107837152D01*
X163926626Y-107819825D01*
X163940239Y-107799451D01*
X163949610Y-107776829D01*
X164007704Y-107585322D01*
X164116959Y-107380919D01*
X164263993Y-107201758D01*
X164443153Y-107054724D01*
X164647556Y-106945469D01*
X164869346Y-106878189D01*
X165100000Y-106855472D01*
X165330653Y-106878189D01*
X165552443Y-106945469D01*
X165756846Y-107054724D01*
X165936007Y-107201758D01*
X166083041Y-107380918D01*
X166192296Y-107585321D01*
X166250390Y-107776828D01*
X166259761Y-107799451D01*
X166273375Y-107819826D01*
X166290702Y-107837153D01*
X166311076Y-107850766D01*
X166333715Y-107860144D01*
X166357748Y-107864924D01*
X166382252Y-107864924D01*
X166406285Y-107860144D01*
X166428924Y-107850766D01*
X166449299Y-107837152D01*
X166466626Y-107819825D01*
X166480239Y-107799451D01*
X166489610Y-107776829D01*
X166547704Y-107585322D01*
X166656959Y-107380919D01*
X166803993Y-107201758D01*
X166983153Y-107054724D01*
X167187556Y-106945469D01*
X167409346Y-106878189D01*
X167640000Y-106855472D01*
X167870653Y-106878189D01*
X168092443Y-106945469D01*
X168296846Y-107054724D01*
X168476007Y-107201758D01*
X168623041Y-107380918D01*
X168732296Y-107585321D01*
X168790390Y-107776828D01*
X168799761Y-107799451D01*
X168813375Y-107819826D01*
X168830702Y-107837153D01*
X168851076Y-107850766D01*
X168873715Y-107860144D01*
X168897748Y-107864924D01*
X168922252Y-107864924D01*
X168946285Y-107860144D01*
X168968924Y-107850766D01*
X168989299Y-107837152D01*
X169006626Y-107819825D01*
X169020239Y-107799451D01*
X169029610Y-107776829D01*
X169087704Y-107585322D01*
X169196959Y-107380919D01*
X169343993Y-107201758D01*
X169523153Y-107054724D01*
X169727556Y-106945469D01*
X169949346Y-106878189D01*
X170180000Y-106855472D01*
X170410653Y-106878189D01*
G37*
G36*
X132249000Y-106536000D02*
G01*
X127847000Y-106536000D01*
X127847000Y-104284000D01*
X132249000Y-104284000D01*
X132249000Y-106536000D01*
G37*
G36*
X131233456Y-101749431D02*
G01*
X131343735Y-101760292D01*
X131500759Y-101807925D01*
X131555990Y-101824679D01*
X131751598Y-101929234D01*
X131923055Y-102069945D01*
X132063766Y-102241402D01*
X132168321Y-102437010D01*
X132168322Y-102437014D01*
X132232708Y-102649265D01*
X132254448Y-102870000D01*
X132232708Y-103090735D01*
X132185075Y-103247759D01*
X132168321Y-103302990D01*
X132063766Y-103498598D01*
X131923055Y-103670055D01*
X131751598Y-103810766D01*
X131555990Y-103915321D01*
X131500759Y-103932075D01*
X131343735Y-103979708D01*
X131233456Y-103990569D01*
X131178317Y-103996000D01*
X128917683Y-103996000D01*
X128862544Y-103990569D01*
X128752265Y-103979708D01*
X128595241Y-103932075D01*
X128540010Y-103915321D01*
X128344402Y-103810766D01*
X128172945Y-103670055D01*
X128032234Y-103498598D01*
X127927679Y-103302990D01*
X127910925Y-103247759D01*
X127863292Y-103090735D01*
X127841552Y-102870000D01*
X127863292Y-102649265D01*
X127927678Y-102437014D01*
X127927679Y-102437010D01*
X128032234Y-102241402D01*
X128172945Y-102069945D01*
X128344402Y-101929234D01*
X128540010Y-101824679D01*
X128595241Y-101807925D01*
X128752265Y-101760292D01*
X128862544Y-101749431D01*
X128917683Y-101744000D01*
X131178317Y-101744000D01*
X131233456Y-101749431D01*
G37*
G36*
X131233456Y-99209431D02*
G01*
X131343735Y-99220292D01*
X131500759Y-99267925D01*
X131555990Y-99284679D01*
X131751598Y-99389234D01*
X131923055Y-99529945D01*
X132063766Y-99701402D01*
X132168321Y-99897010D01*
X132168322Y-99897014D01*
X132232708Y-100109265D01*
X132254448Y-100330000D01*
X132232708Y-100550735D01*
X132185075Y-100707759D01*
X132168321Y-100762990D01*
X132063766Y-100958598D01*
X131923055Y-101130055D01*
X131751598Y-101270766D01*
X131555990Y-101375321D01*
X131500759Y-101392075D01*
X131343735Y-101439708D01*
X131233456Y-101450569D01*
X131178317Y-101456000D01*
X128917683Y-101456000D01*
X128862544Y-101450569D01*
X128752265Y-101439708D01*
X128595241Y-101392075D01*
X128540010Y-101375321D01*
X128344402Y-101270766D01*
X128172945Y-101130055D01*
X128032234Y-100958598D01*
X127927679Y-100762990D01*
X127910925Y-100707759D01*
X127863292Y-100550735D01*
X127841552Y-100330000D01*
X127863292Y-100109265D01*
X127927678Y-99897014D01*
X127927679Y-99897010D01*
X128032234Y-99701402D01*
X128172945Y-99529945D01*
X128344402Y-99389234D01*
X128540010Y-99284679D01*
X128595241Y-99267925D01*
X128752265Y-99220292D01*
X128862544Y-99209431D01*
X128917683Y-99204000D01*
X131178317Y-99204000D01*
X131233456Y-99209431D01*
G37*
G36*
X155164549Y-96661116D02*
G01*
X155275734Y-96683232D01*
X155485203Y-96769997D01*
X155673720Y-96895960D01*
X155834040Y-97056280D01*
X155960003Y-97244797D01*
X156046768Y-97454266D01*
X156091000Y-97676636D01*
X156091000Y-97903364D01*
X156046768Y-98125734D01*
X155960003Y-98335203D01*
X155834040Y-98523720D01*
X155673720Y-98684040D01*
X155485203Y-98810003D01*
X155275734Y-98896768D01*
X155179048Y-98916000D01*
X155053365Y-98941000D01*
X154826635Y-98941000D01*
X154700952Y-98916000D01*
X154604266Y-98896768D01*
X154394797Y-98810003D01*
X154206280Y-98684040D01*
X154045960Y-98523720D01*
X153919997Y-98335203D01*
X153833232Y-98125734D01*
X153789000Y-97903364D01*
X153789000Y-97676636D01*
X153833232Y-97454266D01*
X153919997Y-97244797D01*
X154045960Y-97056280D01*
X154206280Y-96895960D01*
X154394797Y-96769997D01*
X154604266Y-96683232D01*
X154715451Y-96661116D01*
X154826635Y-96639000D01*
X155053365Y-96639000D01*
X155164549Y-96661116D01*
G37*
G36*
X165324549Y-96661116D02*
G01*
X165435734Y-96683232D01*
X165645203Y-96769997D01*
X165833720Y-96895960D01*
X165994040Y-97056280D01*
X166120003Y-97244797D01*
X166206768Y-97454266D01*
X166251000Y-97676636D01*
X166251000Y-97903364D01*
X166206768Y-98125734D01*
X166120003Y-98335203D01*
X165994040Y-98523720D01*
X165833720Y-98684040D01*
X165645203Y-98810003D01*
X165435734Y-98896768D01*
X165339048Y-98916000D01*
X165213365Y-98941000D01*
X164986635Y-98941000D01*
X164860952Y-98916000D01*
X164764266Y-98896768D01*
X164554797Y-98810003D01*
X164366280Y-98684040D01*
X164205960Y-98523720D01*
X164079997Y-98335203D01*
X163993232Y-98125734D01*
X163949000Y-97903364D01*
X163949000Y-97676636D01*
X163993232Y-97454266D01*
X164079997Y-97244797D01*
X164205960Y-97056280D01*
X164366280Y-96895960D01*
X164554797Y-96769997D01*
X164764266Y-96683232D01*
X164875451Y-96661116D01*
X164986635Y-96639000D01*
X165213365Y-96639000D01*
X165324549Y-96661116D01*
G37*
G36*
X131233456Y-96669431D02*
G01*
X131343735Y-96680292D01*
X131500759Y-96727925D01*
X131555990Y-96744679D01*
X131751598Y-96849234D01*
X131923055Y-96989945D01*
X132063766Y-97161402D01*
X132168321Y-97357010D01*
X132168322Y-97357014D01*
X132232708Y-97569265D01*
X132254448Y-97790000D01*
X132232708Y-98010735D01*
X132197823Y-98125734D01*
X132168321Y-98222990D01*
X132063766Y-98418598D01*
X131923055Y-98590055D01*
X131751598Y-98730766D01*
X131555990Y-98835321D01*
X131500759Y-98852075D01*
X131343735Y-98899708D01*
X131233456Y-98910569D01*
X131178317Y-98916000D01*
X128917683Y-98916000D01*
X128862544Y-98910569D01*
X128752265Y-98899708D01*
X128595241Y-98852075D01*
X128540010Y-98835321D01*
X128344402Y-98730766D01*
X128172945Y-98590055D01*
X128032234Y-98418598D01*
X127927679Y-98222990D01*
X127898177Y-98125734D01*
X127863292Y-98010735D01*
X127841552Y-97790000D01*
X127863292Y-97569265D01*
X127927678Y-97357014D01*
X127927679Y-97357010D01*
X128032234Y-97161402D01*
X128172945Y-96989945D01*
X128344402Y-96849234D01*
X128540010Y-96744679D01*
X128595241Y-96727925D01*
X128752265Y-96680292D01*
X128862544Y-96669431D01*
X128917683Y-96664000D01*
X131178317Y-96664000D01*
X131233456Y-96669431D01*
G37*
G36*
X131233456Y-94129431D02*
G01*
X131343735Y-94140292D01*
X131500759Y-94187925D01*
X131555990Y-94204679D01*
X131751598Y-94309234D01*
X131923055Y-94449945D01*
X132063766Y-94621402D01*
X132168321Y-94817010D01*
X132168322Y-94817014D01*
X132232708Y-95029265D01*
X132254448Y-95250000D01*
X132232708Y-95470735D01*
X132185075Y-95627759D01*
X132168321Y-95682990D01*
X132063766Y-95878598D01*
X131923055Y-96050055D01*
X131751598Y-96190766D01*
X131555990Y-96295321D01*
X131500759Y-96312075D01*
X131343735Y-96359708D01*
X131233456Y-96370569D01*
X131178317Y-96376000D01*
X128917683Y-96376000D01*
X128862544Y-96370569D01*
X128752265Y-96359708D01*
X128595241Y-96312075D01*
X128540010Y-96295321D01*
X128344402Y-96190766D01*
X128172945Y-96050055D01*
X128032234Y-95878598D01*
X127927679Y-95682990D01*
X127910925Y-95627759D01*
X127863292Y-95470735D01*
X127841552Y-95250000D01*
X127863292Y-95029265D01*
X127927678Y-94817014D01*
X127927679Y-94817010D01*
X128032234Y-94621402D01*
X128172945Y-94449945D01*
X128344402Y-94309234D01*
X128540010Y-94204679D01*
X128595241Y-94187925D01*
X128752265Y-94140292D01*
X128862544Y-94129431D01*
X128917683Y-94124000D01*
X131178317Y-94124000D01*
X131233456Y-94129431D01*
G37*
G36*
X155164548Y-92851118D02*
G01*
X155275733Y-92873234D01*
X155485202Y-92959999D01*
X155673719Y-93085962D01*
X155834039Y-93246282D01*
X155960002Y-93434799D01*
X156046767Y-93644268D01*
X156090999Y-93866638D01*
X156090999Y-94093366D01*
X156046767Y-94315736D01*
X155960002Y-94525205D01*
X155834039Y-94713722D01*
X155673719Y-94874042D01*
X155485202Y-95000005D01*
X155275733Y-95086770D01*
X155164548Y-95108886D01*
X155053364Y-95131002D01*
X154826634Y-95131002D01*
X154715450Y-95108886D01*
X154604265Y-95086770D01*
X154394796Y-95000005D01*
X154206279Y-94874042D01*
X154045959Y-94713722D01*
X153919996Y-94525205D01*
X153833231Y-94315736D01*
X153788999Y-94093366D01*
X153788999Y-93866638D01*
X153833231Y-93644268D01*
X153919996Y-93434799D01*
X154045959Y-93246282D01*
X154206279Y-93085962D01*
X154394796Y-92959999D01*
X154604265Y-92873234D01*
X154715450Y-92851118D01*
X154826634Y-92829002D01*
X155053364Y-92829002D01*
X155164548Y-92851118D01*
G37*
G36*
X165324548Y-92851118D02*
G01*
X165435733Y-92873234D01*
X165645202Y-92959999D01*
X165833719Y-93085962D01*
X165994039Y-93246282D01*
X166120002Y-93434799D01*
X166206767Y-93644268D01*
X166250999Y-93866638D01*
X166250999Y-94093366D01*
X166206767Y-94315736D01*
X166120002Y-94525205D01*
X165994039Y-94713722D01*
X165833719Y-94874042D01*
X165645202Y-95000005D01*
X165435733Y-95086770D01*
X165324548Y-95108886D01*
X165213364Y-95131002D01*
X164986634Y-95131002D01*
X164875450Y-95108886D01*
X164764265Y-95086770D01*
X164554796Y-95000005D01*
X164366279Y-94874042D01*
X164205959Y-94713722D01*
X164079996Y-94525205D01*
X163993231Y-94315736D01*
X163948999Y-94093366D01*
X163948999Y-93866638D01*
X163993231Y-93644268D01*
X164079996Y-93434799D01*
X164205959Y-93246282D01*
X164366279Y-93085962D01*
X164554796Y-92959999D01*
X164764265Y-92873234D01*
X164875450Y-92851118D01*
X164986634Y-92829002D01*
X165213364Y-92829002D01*
X165324548Y-92851118D01*
G37*
G36*
X131233456Y-91589431D02*
G01*
X131343735Y-91600292D01*
X131500759Y-91647925D01*
X131555990Y-91664679D01*
X131751598Y-91769234D01*
X131923055Y-91909945D01*
X132063766Y-92081402D01*
X132168321Y-92277010D01*
X132168322Y-92277014D01*
X132232708Y-92489265D01*
X132254448Y-92710000D01*
X132232708Y-92930735D01*
X132185620Y-93085962D01*
X132168321Y-93142990D01*
X132063766Y-93338598D01*
X131923055Y-93510055D01*
X131751598Y-93650766D01*
X131555990Y-93755321D01*
X131500759Y-93772075D01*
X131343735Y-93819708D01*
X131233456Y-93830569D01*
X131178317Y-93836000D01*
X128917683Y-93836000D01*
X128862544Y-93830569D01*
X128752265Y-93819708D01*
X128595241Y-93772075D01*
X128540010Y-93755321D01*
X128344402Y-93650766D01*
X128172945Y-93510055D01*
X128032234Y-93338598D01*
X127927679Y-93142990D01*
X127910380Y-93085962D01*
X127863292Y-92930735D01*
X127841552Y-92710000D01*
X127863292Y-92489265D01*
X127927678Y-92277014D01*
X127927679Y-92277010D01*
X128032234Y-92081402D01*
X128172945Y-91909945D01*
X128344402Y-91769234D01*
X128540010Y-91664679D01*
X128595241Y-91647925D01*
X128752265Y-91600292D01*
X128862544Y-91589431D01*
X128917683Y-91584000D01*
X131178317Y-91584000D01*
X131233456Y-91589431D01*
G37*
G36*
X170410653Y-86558189D02*
G01*
X170632443Y-86625469D01*
X170836846Y-86734724D01*
X171016007Y-86881758D01*
X171163041Y-87060918D01*
X171272296Y-87265321D01*
X171339576Y-87487111D01*
X171356600Y-87659962D01*
X171356600Y-89925568D01*
X171339576Y-90098419D01*
X171272296Y-90320209D01*
X171163041Y-90524612D01*
X171016007Y-90703772D01*
X170836847Y-90850806D01*
X170632444Y-90960061D01*
X170410654Y-91027341D01*
X170180000Y-91050058D01*
X169949347Y-91027341D01*
X169727557Y-90960061D01*
X169523154Y-90850806D01*
X169343994Y-90703772D01*
X169196960Y-90524612D01*
X169087705Y-90320209D01*
X169029610Y-90128698D01*
X169020240Y-90106078D01*
X169006627Y-90085704D01*
X168989300Y-90068377D01*
X168968925Y-90054763D01*
X168946286Y-90045385D01*
X168922253Y-90040605D01*
X168897749Y-90040605D01*
X168873716Y-90045385D01*
X168851077Y-90054763D01*
X168830703Y-90068376D01*
X168813376Y-90085703D01*
X168799762Y-90106078D01*
X168790387Y-90128712D01*
X168732296Y-90320209D01*
X168623041Y-90524612D01*
X168476007Y-90703772D01*
X168296847Y-90850806D01*
X168092444Y-90960061D01*
X167870654Y-91027341D01*
X167640000Y-91050058D01*
X167409347Y-91027341D01*
X167187557Y-90960061D01*
X166983154Y-90850806D01*
X166803994Y-90703772D01*
X166656960Y-90524612D01*
X166547705Y-90320209D01*
X166489610Y-90128698D01*
X166480240Y-90106078D01*
X166466627Y-90085704D01*
X166449300Y-90068377D01*
X166428925Y-90054763D01*
X166406286Y-90045385D01*
X166382253Y-90040605D01*
X166357749Y-90040605D01*
X166333716Y-90045385D01*
X166311077Y-90054763D01*
X166290703Y-90068376D01*
X166273376Y-90085703D01*
X166259762Y-90106078D01*
X166250387Y-90128712D01*
X166192296Y-90320209D01*
X166083041Y-90524612D01*
X165936007Y-90703772D01*
X165756847Y-90850806D01*
X165552444Y-90960061D01*
X165330654Y-91027341D01*
X165100000Y-91050058D01*
X164869347Y-91027341D01*
X164647557Y-90960061D01*
X164443154Y-90850806D01*
X164263994Y-90703772D01*
X164116960Y-90524612D01*
X164007705Y-90320209D01*
X163949610Y-90128698D01*
X163940240Y-90106078D01*
X163926627Y-90085704D01*
X163909300Y-90068377D01*
X163888925Y-90054763D01*
X163866286Y-90045385D01*
X163842253Y-90040605D01*
X163817749Y-90040605D01*
X163793716Y-90045385D01*
X163771077Y-90054763D01*
X163750703Y-90068376D01*
X163733376Y-90085703D01*
X163719762Y-90106078D01*
X163710387Y-90128712D01*
X163652296Y-90320209D01*
X163543041Y-90524612D01*
X163396007Y-90703772D01*
X163216847Y-90850806D01*
X163012444Y-90960061D01*
X162790654Y-91027341D01*
X162560000Y-91050058D01*
X162329347Y-91027341D01*
X162107557Y-90960061D01*
X161903154Y-90850806D01*
X161723994Y-90703772D01*
X161576960Y-90524612D01*
X161467705Y-90320209D01*
X161409610Y-90128698D01*
X161400240Y-90106078D01*
X161386627Y-90085704D01*
X161369300Y-90068377D01*
X161348925Y-90054763D01*
X161326286Y-90045385D01*
X161302253Y-90040605D01*
X161277749Y-90040605D01*
X161253716Y-90045385D01*
X161231077Y-90054763D01*
X161210703Y-90068376D01*
X161193376Y-90085703D01*
X161179762Y-90106078D01*
X161170387Y-90128712D01*
X161112296Y-90320209D01*
X161003041Y-90524612D01*
X160856007Y-90703772D01*
X160676847Y-90850806D01*
X160472444Y-90960061D01*
X160250654Y-91027341D01*
X160020000Y-91050058D01*
X159789347Y-91027341D01*
X159567557Y-90960061D01*
X159363154Y-90850806D01*
X159183994Y-90703772D01*
X159036960Y-90524612D01*
X158927705Y-90320209D01*
X158869610Y-90128698D01*
X158860240Y-90106078D01*
X158846627Y-90085704D01*
X158829300Y-90068377D01*
X158808925Y-90054763D01*
X158786286Y-90045385D01*
X158762253Y-90040605D01*
X158737749Y-90040605D01*
X158713716Y-90045385D01*
X158691077Y-90054763D01*
X158670703Y-90068376D01*
X158653376Y-90085703D01*
X158639762Y-90106078D01*
X158630387Y-90128712D01*
X158572296Y-90320209D01*
X158463041Y-90524612D01*
X158316007Y-90703772D01*
X158136847Y-90850806D01*
X157932444Y-90960061D01*
X157710654Y-91027341D01*
X157480000Y-91050058D01*
X157249347Y-91027341D01*
X157027557Y-90960061D01*
X156823154Y-90850806D01*
X156643994Y-90703772D01*
X156496960Y-90524612D01*
X156387705Y-90320209D01*
X156329610Y-90128698D01*
X156320240Y-90106078D01*
X156306627Y-90085704D01*
X156289300Y-90068377D01*
X156268925Y-90054763D01*
X156246286Y-90045385D01*
X156222253Y-90040605D01*
X156197749Y-90040605D01*
X156173716Y-90045385D01*
X156151077Y-90054763D01*
X156130703Y-90068376D01*
X156113376Y-90085703D01*
X156099762Y-90106078D01*
X156090387Y-90128712D01*
X156032296Y-90320209D01*
X155923041Y-90524612D01*
X155776007Y-90703772D01*
X155596847Y-90850806D01*
X155392444Y-90960061D01*
X155170654Y-91027341D01*
X154940000Y-91050058D01*
X154709347Y-91027341D01*
X154487557Y-90960061D01*
X154283154Y-90850806D01*
X154103994Y-90703772D01*
X153956960Y-90524612D01*
X153847705Y-90320209D01*
X153789610Y-90128698D01*
X153780240Y-90106078D01*
X153766627Y-90085704D01*
X153749300Y-90068377D01*
X153728925Y-90054763D01*
X153706286Y-90045385D01*
X153682253Y-90040605D01*
X153657749Y-90040605D01*
X153633716Y-90045385D01*
X153611077Y-90054763D01*
X153590703Y-90068376D01*
X153573376Y-90085703D01*
X153559762Y-90106078D01*
X153550387Y-90128712D01*
X153492296Y-90320209D01*
X153383041Y-90524612D01*
X153236007Y-90703772D01*
X153056847Y-90850806D01*
X152852444Y-90960061D01*
X152630654Y-91027341D01*
X152400000Y-91050058D01*
X152169347Y-91027341D01*
X151947557Y-90960061D01*
X151743154Y-90850806D01*
X151563994Y-90703772D01*
X151416960Y-90524612D01*
X151307705Y-90320209D01*
X151249610Y-90128698D01*
X151240240Y-90106078D01*
X151226627Y-90085704D01*
X151209300Y-90068377D01*
X151188925Y-90054763D01*
X151166286Y-90045385D01*
X151142253Y-90040605D01*
X151117749Y-90040605D01*
X151093716Y-90045385D01*
X151071077Y-90054763D01*
X151050703Y-90068376D01*
X151033376Y-90085703D01*
X151019762Y-90106078D01*
X151010387Y-90128712D01*
X150952296Y-90320209D01*
X150843041Y-90524612D01*
X150696007Y-90703772D01*
X150516847Y-90850806D01*
X150312444Y-90960061D01*
X150090654Y-91027341D01*
X149860000Y-91050058D01*
X149629347Y-91027341D01*
X149407557Y-90960061D01*
X149203154Y-90850806D01*
X149023994Y-90703772D01*
X148876960Y-90524612D01*
X148767705Y-90320209D01*
X148709610Y-90128698D01*
X148700240Y-90106078D01*
X148686627Y-90085704D01*
X148669300Y-90068377D01*
X148648925Y-90054763D01*
X148626286Y-90045385D01*
X148602253Y-90040605D01*
X148577749Y-90040605D01*
X148553716Y-90045385D01*
X148531077Y-90054763D01*
X148510703Y-90068376D01*
X148493376Y-90085703D01*
X148479762Y-90106078D01*
X148470387Y-90128712D01*
X148412296Y-90320209D01*
X148303041Y-90524612D01*
X148156007Y-90703772D01*
X147976847Y-90850806D01*
X147772444Y-90960061D01*
X147550654Y-91027341D01*
X147320000Y-91050058D01*
X147089347Y-91027341D01*
X146867557Y-90960061D01*
X146663154Y-90850806D01*
X146483994Y-90703772D01*
X146336960Y-90524612D01*
X146227705Y-90320209D01*
X146169610Y-90128698D01*
X146160240Y-90106078D01*
X146146627Y-90085704D01*
X146129300Y-90068377D01*
X146108925Y-90054763D01*
X146086286Y-90045385D01*
X146062253Y-90040605D01*
X146037749Y-90040605D01*
X146013716Y-90045385D01*
X145991077Y-90054763D01*
X145970703Y-90068376D01*
X145953376Y-90085703D01*
X145939762Y-90106078D01*
X145930387Y-90128712D01*
X145872296Y-90320209D01*
X145763041Y-90524612D01*
X145616007Y-90703772D01*
X145436847Y-90850806D01*
X145232444Y-90960061D01*
X145010654Y-91027341D01*
X144780000Y-91050058D01*
X144549347Y-91027341D01*
X144327557Y-90960061D01*
X144123154Y-90850806D01*
X143943994Y-90703772D01*
X143796960Y-90524612D01*
X143687705Y-90320209D01*
X143629610Y-90128698D01*
X143620240Y-90106078D01*
X143606627Y-90085704D01*
X143589300Y-90068377D01*
X143568925Y-90054763D01*
X143546286Y-90045385D01*
X143522253Y-90040605D01*
X143497749Y-90040605D01*
X143473716Y-90045385D01*
X143451077Y-90054763D01*
X143430703Y-90068376D01*
X143413376Y-90085703D01*
X143399762Y-90106078D01*
X143390387Y-90128712D01*
X143332296Y-90320209D01*
X143223041Y-90524612D01*
X143076007Y-90703772D01*
X142896847Y-90850806D01*
X142692444Y-90960061D01*
X142470654Y-91027341D01*
X142240000Y-91050058D01*
X142009347Y-91027341D01*
X141787557Y-90960061D01*
X141583154Y-90850806D01*
X141403994Y-90703772D01*
X141256960Y-90524612D01*
X141147705Y-90320209D01*
X141089610Y-90128698D01*
X141080240Y-90106078D01*
X141066627Y-90085704D01*
X141049300Y-90068377D01*
X141028925Y-90054763D01*
X141006286Y-90045385D01*
X140982253Y-90040605D01*
X140957749Y-90040605D01*
X140933716Y-90045385D01*
X140911077Y-90054763D01*
X140890703Y-90068376D01*
X140873376Y-90085703D01*
X140859762Y-90106078D01*
X140850387Y-90128712D01*
X140792296Y-90320209D01*
X140683041Y-90524612D01*
X140536007Y-90703772D01*
X140356847Y-90850806D01*
X140152444Y-90960061D01*
X139930654Y-91027341D01*
X139700000Y-91050058D01*
X139469347Y-91027341D01*
X139247557Y-90960061D01*
X139043154Y-90850806D01*
X138863994Y-90703772D01*
X138716960Y-90524612D01*
X138607705Y-90320209D01*
X138549610Y-90128698D01*
X138540240Y-90106078D01*
X138526627Y-90085704D01*
X138509300Y-90068377D01*
X138488925Y-90054763D01*
X138466286Y-90045385D01*
X138442253Y-90040605D01*
X138417749Y-90040605D01*
X138393716Y-90045385D01*
X138371077Y-90054763D01*
X138350703Y-90068376D01*
X138333376Y-90085703D01*
X138319762Y-90106078D01*
X138310387Y-90128712D01*
X138252296Y-90320209D01*
X138143041Y-90524612D01*
X137996007Y-90703772D01*
X137816847Y-90850806D01*
X137612444Y-90960061D01*
X137390654Y-91027341D01*
X137160000Y-91050058D01*
X136929347Y-91027341D01*
X136707557Y-90960061D01*
X136503154Y-90850806D01*
X136323994Y-90703772D01*
X136176960Y-90524612D01*
X136067705Y-90320209D01*
X136000425Y-90098419D01*
X135983401Y-89925568D01*
X135983400Y-87659963D01*
X136000424Y-87487112D01*
X136067704Y-87265322D01*
X136176959Y-87060919D01*
X136323993Y-86881758D01*
X136503153Y-86734724D01*
X136707556Y-86625469D01*
X136929346Y-86558189D01*
X137160000Y-86535472D01*
X137390653Y-86558189D01*
X137612443Y-86625469D01*
X137816846Y-86734724D01*
X137996007Y-86881758D01*
X138143041Y-87060918D01*
X138252296Y-87265321D01*
X138310390Y-87456828D01*
X138319761Y-87479451D01*
X138333375Y-87499826D01*
X138350702Y-87517153D01*
X138371076Y-87530766D01*
X138393715Y-87540144D01*
X138417748Y-87544924D01*
X138442252Y-87544924D01*
X138466285Y-87540144D01*
X138488924Y-87530766D01*
X138509299Y-87517152D01*
X138526626Y-87499825D01*
X138540239Y-87479451D01*
X138549610Y-87456829D01*
X138607704Y-87265322D01*
X138716959Y-87060919D01*
X138863993Y-86881758D01*
X139043153Y-86734724D01*
X139247556Y-86625469D01*
X139469346Y-86558189D01*
X139700000Y-86535472D01*
X139930653Y-86558189D01*
X140152443Y-86625469D01*
X140356846Y-86734724D01*
X140536007Y-86881758D01*
X140683041Y-87060918D01*
X140792296Y-87265321D01*
X140850390Y-87456828D01*
X140859761Y-87479451D01*
X140873375Y-87499826D01*
X140890702Y-87517153D01*
X140911076Y-87530766D01*
X140933715Y-87540144D01*
X140957748Y-87544924D01*
X140982252Y-87544924D01*
X141006285Y-87540144D01*
X141028924Y-87530766D01*
X141049299Y-87517152D01*
X141066626Y-87499825D01*
X141080239Y-87479451D01*
X141089610Y-87456829D01*
X141147704Y-87265322D01*
X141256959Y-87060919D01*
X141403993Y-86881758D01*
X141583153Y-86734724D01*
X141787556Y-86625469D01*
X142009346Y-86558189D01*
X142240000Y-86535472D01*
X142470653Y-86558189D01*
X142692443Y-86625469D01*
X142896846Y-86734724D01*
X143076007Y-86881758D01*
X143223041Y-87060918D01*
X143332296Y-87265321D01*
X143390390Y-87456828D01*
X143399761Y-87479451D01*
X143413375Y-87499826D01*
X143430702Y-87517153D01*
X143451076Y-87530766D01*
X143473715Y-87540144D01*
X143497748Y-87544924D01*
X143522252Y-87544924D01*
X143546285Y-87540144D01*
X143568924Y-87530766D01*
X143589299Y-87517152D01*
X143606626Y-87499825D01*
X143620239Y-87479451D01*
X143629610Y-87456829D01*
X143687704Y-87265322D01*
X143796959Y-87060919D01*
X143943993Y-86881758D01*
X144123153Y-86734724D01*
X144327556Y-86625469D01*
X144549346Y-86558189D01*
X144780000Y-86535472D01*
X145010653Y-86558189D01*
X145232443Y-86625469D01*
X145436846Y-86734724D01*
X145616007Y-86881758D01*
X145763041Y-87060918D01*
X145872296Y-87265321D01*
X145930390Y-87456828D01*
X145939761Y-87479451D01*
X145953375Y-87499826D01*
X145970702Y-87517153D01*
X145991076Y-87530766D01*
X146013715Y-87540144D01*
X146037748Y-87544924D01*
X146062252Y-87544924D01*
X146086285Y-87540144D01*
X146108924Y-87530766D01*
X146129299Y-87517152D01*
X146146626Y-87499825D01*
X146160239Y-87479451D01*
X146169610Y-87456829D01*
X146227704Y-87265322D01*
X146336959Y-87060919D01*
X146483993Y-86881758D01*
X146663153Y-86734724D01*
X146867556Y-86625469D01*
X147089346Y-86558189D01*
X147320000Y-86535472D01*
X147550653Y-86558189D01*
X147772443Y-86625469D01*
X147976846Y-86734724D01*
X148156007Y-86881758D01*
X148303041Y-87060918D01*
X148412296Y-87265321D01*
X148470390Y-87456828D01*
X148479761Y-87479451D01*
X148493375Y-87499826D01*
X148510702Y-87517153D01*
X148531076Y-87530766D01*
X148553715Y-87540144D01*
X148577748Y-87544924D01*
X148602252Y-87544924D01*
X148626285Y-87540144D01*
X148648924Y-87530766D01*
X148669299Y-87517152D01*
X148686626Y-87499825D01*
X148700239Y-87479451D01*
X148709610Y-87456829D01*
X148767704Y-87265322D01*
X148876959Y-87060919D01*
X149023993Y-86881758D01*
X149203153Y-86734724D01*
X149407556Y-86625469D01*
X149629346Y-86558189D01*
X149860000Y-86535472D01*
X150090653Y-86558189D01*
X150312443Y-86625469D01*
X150516846Y-86734724D01*
X150696007Y-86881758D01*
X150843041Y-87060918D01*
X150952296Y-87265321D01*
X151010390Y-87456828D01*
X151019761Y-87479451D01*
X151033375Y-87499826D01*
X151050702Y-87517153D01*
X151071076Y-87530766D01*
X151093715Y-87540144D01*
X151117748Y-87544924D01*
X151142252Y-87544924D01*
X151166285Y-87540144D01*
X151188924Y-87530766D01*
X151209299Y-87517152D01*
X151226626Y-87499825D01*
X151240239Y-87479451D01*
X151249610Y-87456829D01*
X151307704Y-87265322D01*
X151416959Y-87060919D01*
X151563993Y-86881758D01*
X151743153Y-86734724D01*
X151947556Y-86625469D01*
X152169346Y-86558189D01*
X152400000Y-86535472D01*
X152630653Y-86558189D01*
X152852443Y-86625469D01*
X153056846Y-86734724D01*
X153236007Y-86881758D01*
X153383041Y-87060918D01*
X153492296Y-87265321D01*
X153550390Y-87456828D01*
X153559761Y-87479451D01*
X153573375Y-87499826D01*
X153590702Y-87517153D01*
X153611076Y-87530766D01*
X153633715Y-87540144D01*
X153657748Y-87544924D01*
X153682252Y-87544924D01*
X153706285Y-87540144D01*
X153728924Y-87530766D01*
X153749299Y-87517152D01*
X153766626Y-87499825D01*
X153780239Y-87479451D01*
X153789610Y-87456829D01*
X153847704Y-87265322D01*
X153956959Y-87060919D01*
X154103993Y-86881758D01*
X154283153Y-86734724D01*
X154487556Y-86625469D01*
X154709346Y-86558189D01*
X154940000Y-86535472D01*
X155170653Y-86558189D01*
X155392443Y-86625469D01*
X155596846Y-86734724D01*
X155776007Y-86881758D01*
X155923041Y-87060918D01*
X156032296Y-87265321D01*
X156090390Y-87456828D01*
X156099761Y-87479451D01*
X156113375Y-87499826D01*
X156130702Y-87517153D01*
X156151076Y-87530766D01*
X156173715Y-87540144D01*
X156197748Y-87544924D01*
X156222252Y-87544924D01*
X156246285Y-87540144D01*
X156268924Y-87530766D01*
X156289299Y-87517152D01*
X156306626Y-87499825D01*
X156320239Y-87479451D01*
X156329610Y-87456829D01*
X156387704Y-87265322D01*
X156496959Y-87060919D01*
X156643993Y-86881758D01*
X156823153Y-86734724D01*
X157027556Y-86625469D01*
X157249346Y-86558189D01*
X157480000Y-86535472D01*
X157710653Y-86558189D01*
X157932443Y-86625469D01*
X158136846Y-86734724D01*
X158316007Y-86881758D01*
X158463041Y-87060918D01*
X158572296Y-87265321D01*
X158630390Y-87456828D01*
X158639761Y-87479451D01*
X158653375Y-87499826D01*
X158670702Y-87517153D01*
X158691076Y-87530766D01*
X158713715Y-87540144D01*
X158737748Y-87544924D01*
X158762252Y-87544924D01*
X158786285Y-87540144D01*
X158808924Y-87530766D01*
X158829299Y-87517152D01*
X158846626Y-87499825D01*
X158860239Y-87479451D01*
X158869610Y-87456829D01*
X158927704Y-87265322D01*
X159036959Y-87060919D01*
X159183993Y-86881758D01*
X159363153Y-86734724D01*
X159567556Y-86625469D01*
X159789346Y-86558189D01*
X160020000Y-86535472D01*
X160250653Y-86558189D01*
X160472443Y-86625469D01*
X160676846Y-86734724D01*
X160856007Y-86881758D01*
X161003041Y-87060918D01*
X161112296Y-87265321D01*
X161170390Y-87456828D01*
X161179761Y-87479451D01*
X161193375Y-87499826D01*
X161210702Y-87517153D01*
X161231076Y-87530766D01*
X161253715Y-87540144D01*
X161277748Y-87544924D01*
X161302252Y-87544924D01*
X161326285Y-87540144D01*
X161348924Y-87530766D01*
X161369299Y-87517152D01*
X161386626Y-87499825D01*
X161400239Y-87479451D01*
X161409610Y-87456829D01*
X161467704Y-87265322D01*
X161576959Y-87060919D01*
X161723993Y-86881758D01*
X161903153Y-86734724D01*
X162107556Y-86625469D01*
X162329346Y-86558189D01*
X162560000Y-86535472D01*
X162790653Y-86558189D01*
X163012443Y-86625469D01*
X163216846Y-86734724D01*
X163396007Y-86881758D01*
X163543041Y-87060918D01*
X163652296Y-87265321D01*
X163710390Y-87456828D01*
X163719761Y-87479451D01*
X163733375Y-87499826D01*
X163750702Y-87517153D01*
X163771076Y-87530766D01*
X163793715Y-87540144D01*
X163817748Y-87544924D01*
X163842252Y-87544924D01*
X163866285Y-87540144D01*
X163888924Y-87530766D01*
X163909299Y-87517152D01*
X163926626Y-87499825D01*
X163940239Y-87479451D01*
X163949610Y-87456829D01*
X164007704Y-87265322D01*
X164116959Y-87060919D01*
X164263993Y-86881758D01*
X164443153Y-86734724D01*
X164647556Y-86625469D01*
X164869346Y-86558189D01*
X165100000Y-86535472D01*
X165330653Y-86558189D01*
X165552443Y-86625469D01*
X165756846Y-86734724D01*
X165936007Y-86881758D01*
X166083041Y-87060918D01*
X166192296Y-87265321D01*
X166250390Y-87456828D01*
X166259761Y-87479451D01*
X166273375Y-87499826D01*
X166290702Y-87517153D01*
X166311076Y-87530766D01*
X166333715Y-87540144D01*
X166357748Y-87544924D01*
X166382252Y-87544924D01*
X166406285Y-87540144D01*
X166428924Y-87530766D01*
X166449299Y-87517152D01*
X166466626Y-87499825D01*
X166480239Y-87479451D01*
X166489610Y-87456829D01*
X166547704Y-87265322D01*
X166656959Y-87060919D01*
X166803993Y-86881758D01*
X166983153Y-86734724D01*
X167187556Y-86625469D01*
X167409346Y-86558189D01*
X167640000Y-86535472D01*
X167870653Y-86558189D01*
X168092443Y-86625469D01*
X168296846Y-86734724D01*
X168476007Y-86881758D01*
X168623041Y-87060918D01*
X168732296Y-87265321D01*
X168790390Y-87456828D01*
X168799761Y-87479451D01*
X168813375Y-87499826D01*
X168830702Y-87517153D01*
X168851076Y-87530766D01*
X168873715Y-87540144D01*
X168897748Y-87544924D01*
X168922252Y-87544924D01*
X168946285Y-87540144D01*
X168968924Y-87530766D01*
X168989299Y-87517152D01*
X169006626Y-87499825D01*
X169020239Y-87479451D01*
X169029610Y-87456829D01*
X169087704Y-87265322D01*
X169196959Y-87060919D01*
X169343993Y-86881758D01*
X169523153Y-86734724D01*
X169727556Y-86625469D01*
X169949346Y-86558189D01*
X170180000Y-86535472D01*
X170410653Y-86558189D01*
G37*
G36*
X155160734Y-80365292D02*
G01*
X155317758Y-80412925D01*
X155372989Y-80429679D01*
X155557413Y-80528256D01*
X155568599Y-80534235D01*
X155740055Y-80674945D01*
X155855533Y-80815656D01*
X155880766Y-80846402D01*
X155985321Y-81042010D01*
X156002075Y-81097241D01*
X156049708Y-81254265D01*
X156066000Y-81419684D01*
X156066000Y-83680316D01*
X156049708Y-83845735D01*
X156002075Y-84002759D01*
X155985321Y-84057990D01*
X155880766Y-84253598D01*
X155740055Y-84425055D01*
X155568598Y-84565766D01*
X155372990Y-84670321D01*
X155317759Y-84687075D01*
X155160735Y-84734708D01*
X154940000Y-84756448D01*
X154719266Y-84734708D01*
X154562242Y-84687075D01*
X154507011Y-84670321D01*
X154311403Y-84565766D01*
X154139946Y-84425055D01*
X153999235Y-84253598D01*
X153894680Y-84057990D01*
X153877926Y-84002759D01*
X153830293Y-83845735D01*
X153814001Y-83680316D01*
X153814000Y-81419685D01*
X153830292Y-81254266D01*
X153894678Y-81042015D01*
X153894679Y-81042011D01*
X153999234Y-80846403D01*
X153999235Y-80846401D01*
X154139945Y-80674945D01*
X154311401Y-80534235D01*
X154311400Y-80534235D01*
X154311402Y-80534234D01*
X154507010Y-80429679D01*
X154562241Y-80412925D01*
X154719265Y-80365292D01*
X154940000Y-80343552D01*
X155160734Y-80365292D01*
G37*
G36*
X145000734Y-80365292D02*
G01*
X145157758Y-80412925D01*
X145212989Y-80429679D01*
X145397413Y-80528256D01*
X145408599Y-80534235D01*
X145580055Y-80674945D01*
X145695533Y-80815656D01*
X145720766Y-80846402D01*
X145825321Y-81042010D01*
X145842075Y-81097241D01*
X145889708Y-81254265D01*
X145906000Y-81419684D01*
X145906000Y-83680316D01*
X145889708Y-83845735D01*
X145842075Y-84002759D01*
X145825321Y-84057990D01*
X145720766Y-84253598D01*
X145580055Y-84425055D01*
X145408598Y-84565766D01*
X145212990Y-84670321D01*
X145157759Y-84687075D01*
X145000735Y-84734708D01*
X144780000Y-84756448D01*
X144559266Y-84734708D01*
X144402242Y-84687075D01*
X144347011Y-84670321D01*
X144151403Y-84565766D01*
X143979946Y-84425055D01*
X143839235Y-84253598D01*
X143734680Y-84057990D01*
X143717926Y-84002759D01*
X143670293Y-83845735D01*
X143654001Y-83680316D01*
X143654000Y-81419685D01*
X143670292Y-81254266D01*
X143734678Y-81042015D01*
X143734679Y-81042011D01*
X143839234Y-80846403D01*
X143839235Y-80846401D01*
X143979945Y-80674945D01*
X144151401Y-80534235D01*
X144151400Y-80534235D01*
X144151402Y-80534234D01*
X144347010Y-80429679D01*
X144402241Y-80412925D01*
X144559265Y-80365292D01*
X144780000Y-80343552D01*
X145000734Y-80365292D01*
G37*
G36*
X147540734Y-80365292D02*
G01*
X147697758Y-80412925D01*
X147752989Y-80429679D01*
X147937413Y-80528256D01*
X147948599Y-80534235D01*
X148120055Y-80674945D01*
X148235533Y-80815656D01*
X148260766Y-80846402D01*
X148365321Y-81042010D01*
X148382075Y-81097241D01*
X148429708Y-81254265D01*
X148446000Y-81419684D01*
X148446000Y-83680316D01*
X148429708Y-83845735D01*
X148382075Y-84002759D01*
X148365321Y-84057990D01*
X148260766Y-84253598D01*
X148120055Y-84425055D01*
X147948598Y-84565766D01*
X147752990Y-84670321D01*
X147697759Y-84687075D01*
X147540735Y-84734708D01*
X147320000Y-84756448D01*
X147099266Y-84734708D01*
X146942242Y-84687075D01*
X146887011Y-84670321D01*
X146691403Y-84565766D01*
X146519946Y-84425055D01*
X146379235Y-84253598D01*
X146274680Y-84057990D01*
X146257926Y-84002759D01*
X146210293Y-83845735D01*
X146194001Y-83680316D01*
X146194000Y-81419685D01*
X146210292Y-81254266D01*
X146274678Y-81042015D01*
X146274679Y-81042011D01*
X146379234Y-80846403D01*
X146379235Y-80846401D01*
X146519945Y-80674945D01*
X146691401Y-80534235D01*
X146691400Y-80534235D01*
X146691402Y-80534234D01*
X146887010Y-80429679D01*
X146942241Y-80412925D01*
X147099265Y-80365292D01*
X147320000Y-80343552D01*
X147540734Y-80365292D01*
G37*
G36*
X157700734Y-80365292D02*
G01*
X157857758Y-80412925D01*
X157912989Y-80429679D01*
X158097413Y-80528256D01*
X158108599Y-80534235D01*
X158280055Y-80674945D01*
X158395533Y-80815656D01*
X158420766Y-80846402D01*
X158525321Y-81042010D01*
X158542075Y-81097241D01*
X158589708Y-81254265D01*
X158606000Y-81419684D01*
X158606000Y-83680316D01*
X158589708Y-83845735D01*
X158542075Y-84002759D01*
X158525321Y-84057990D01*
X158420766Y-84253598D01*
X158280055Y-84425055D01*
X158108598Y-84565766D01*
X157912990Y-84670321D01*
X157857759Y-84687075D01*
X157700735Y-84734708D01*
X157480000Y-84756448D01*
X157259266Y-84734708D01*
X157102242Y-84687075D01*
X157047011Y-84670321D01*
X156851403Y-84565766D01*
X156679946Y-84425055D01*
X156539235Y-84253598D01*
X156434680Y-84057990D01*
X156417926Y-84002759D01*
X156370293Y-83845735D01*
X156354001Y-83680316D01*
X156354000Y-81419685D01*
X156370292Y-81254266D01*
X156434678Y-81042015D01*
X156434679Y-81042011D01*
X156539234Y-80846403D01*
X156539235Y-80846401D01*
X156679945Y-80674945D01*
X156851401Y-80534235D01*
X156851400Y-80534235D01*
X156851402Y-80534234D01*
X157047010Y-80429679D01*
X157102241Y-80412925D01*
X157259265Y-80365292D01*
X157480000Y-80343552D01*
X157700734Y-80365292D01*
G37*
G36*
X142460734Y-80365292D02*
G01*
X142617758Y-80412925D01*
X142672989Y-80429679D01*
X142857413Y-80528256D01*
X142868599Y-80534235D01*
X143040055Y-80674945D01*
X143155533Y-80815656D01*
X143180766Y-80846402D01*
X143285321Y-81042010D01*
X143302075Y-81097241D01*
X143349708Y-81254265D01*
X143366000Y-81419684D01*
X143366000Y-83680316D01*
X143349708Y-83845735D01*
X143302075Y-84002759D01*
X143285321Y-84057990D01*
X143180766Y-84253598D01*
X143040055Y-84425055D01*
X142868598Y-84565766D01*
X142672990Y-84670321D01*
X142617759Y-84687075D01*
X142460735Y-84734708D01*
X142240000Y-84756448D01*
X142019266Y-84734708D01*
X141862242Y-84687075D01*
X141807011Y-84670321D01*
X141611403Y-84565766D01*
X141439946Y-84425055D01*
X141299235Y-84253598D01*
X141194680Y-84057990D01*
X141177926Y-84002759D01*
X141130293Y-83845735D01*
X141114001Y-83680316D01*
X141114000Y-81419685D01*
X141130292Y-81254266D01*
X141194678Y-81042015D01*
X141194679Y-81042011D01*
X141299234Y-80846403D01*
X141299235Y-80846401D01*
X141439945Y-80674945D01*
X141611401Y-80534235D01*
X141611400Y-80534235D01*
X141611402Y-80534234D01*
X141807010Y-80429679D01*
X141862241Y-80412925D01*
X142019265Y-80365292D01*
X142240000Y-80343552D01*
X142460734Y-80365292D01*
G37*
M02*
